<svg width="1113px" height="196px" viewBox="0 0 1113 196" version="1.1" xmlns="http://www.w3.org/2000/svg">
    <g id="logo">
        <path d="M97.9712,162.0274 C62.5962,161.9624 33.9792,133.3484 33.9082,97.9704 C33.9792,62.5924 62.5962,33.9734 97.9712,33.9144 C133.3462,33.9734 161.9632,62.5924 162.0282,97.9704 C161.9632,133.3484 133.3462,161.9624 97.9712,162.0274 L97.9712,162.0274 Z M164.2892,97.9704 C164.2202,61.3444 134.5962,31.7144 97.9712,31.6514 C61.3452,31.7144 31.7172,61.3444 31.6522,97.9704 C31.7172,134.5984 61.3452,164.2184 97.9712,164.2864 C134.5962,164.2184 164.2202,134.5984 164.2892,97.9704 L164.2892,97.9704 Z M97.9712,192.1734 C45.9502,192.0754 3.8642,150.0034 3.7662,97.9704 C3.8642,45.9434 45.9502,3.8584 97.9712,3.7664 C149.9972,3.8584 192.0782,45.9434 192.1702,97.9704 C192.0782,150.0034 149.9972,192.0754 97.9712,192.1734 L97.9712,192.1734 Z M97.9712,0.0004 C43.8662,0.0944 0.0972,43.8634 0.0002,97.9704 C0.0972,152.0834 43.8662,195.8394 97.9712,195.9384 C152.0812,195.8394 195.8392,152.0834 195.9422,97.9704 C195.8392,43.8634 152.0812,0.0944 97.9712,0.0004 L97.9712,0.0004 Z M101.8892,99.6344 L121.3052,113.2284 L121.3052,107.2054 L101.8892,93.6114 L101.8892,99.6344 Z M74.6412,98.0064 L94.0532,84.4124 L94.0532,78.3914 L74.6412,91.9824 L74.6412,98.0064 Z M74.6412,113.2284 L94.0532,99.6314 L94.0532,93.6114 L74.6412,107.2054 L74.6412,113.2284 Z M136.0792,93.1304 L136.0742,93.1304 C136.0852,93.1374 136.0902,93.1434 136.1012,93.1464 C137.8052,94.3394 138.2172,96.6904 137.0262,98.3954 C135.8302,100.0974 133.4822,100.5114 131.7772,99.3214 C131.7712,99.3124 131.7662,99.3074 131.7552,99.3014 L129.1412,97.4694 L129.1412,103.4934 L136.0792,108.3524 L136.0742,108.3524 C136.0852,108.3584 136.0902,108.3634 136.1012,108.3694 C137.8052,109.5594 138.2172,111.9084 137.0262,113.6154 C135.8302,115.3204 133.4822,115.7314 131.7772,114.5414 C131.7712,114.5324 131.7662,114.5274 131.7552,114.5214 L129.1412,112.6904 L129.1412,118.7134 L136.0792,123.5724 L136.0742,123.5724 C136.0852,123.5784 136.0902,123.5834 136.1012,123.5894 C137.8052,124.7824 138.2172,127.1314 137.0262,128.8354 C135.8302,130.5374 133.4822,130.9514 131.7772,129.7574 C131.7712,129.7534 131.7662,129.7444 131.7552,129.7424 L101.8892,108.8324 L101.8892,114.7464 L132.2912,136.0354 C132.3022,136.0444 132.3072,136.0474 132.3182,136.0484 C134.0172,137.2454 134.4342,139.5934 133.2382,141.2984 C132.0472,143.0004 129.6992,143.4174 127.9942,142.2234 C127.9892,142.2174 127.9782,142.2134 127.9722,142.2054 L127.9722,142.2074 L101.8892,123.9434 L101.8892,144.2984 L101.8892,144.3294 C101.8892,146.4934 100.1362,148.2474 97.9712,148.2474 C95.8122,148.2474 94.0532,146.4934 94.0532,144.3294 C94.0532,144.3204 94.0582,144.3094 94.0582,144.2984 L94.0532,144.2984 L94.0532,123.9434 L67.9742,142.2074 L67.9742,142.2054 C67.9642,142.2134 67.9582,142.2174 67.9532,142.2234 C66.2482,143.4174 63.9002,143.0004 62.7042,141.2984 C61.5132,139.5934 61.9242,137.2454 63.6292,136.0484 C63.6402,136.0474 63.6452,136.0444 63.6562,136.0354 L94.0532,114.7464 L94.0532,109.2614 L94.0532,108.8324 L64.1922,129.7424 L64.1862,129.7424 C64.1812,129.7444 64.1762,129.7534 64.1652,129.7574 C62.4602,130.9514 60.1172,130.5374 58.9212,128.8354 C57.7252,127.1314 58.1422,124.7824 59.8462,123.5894 C59.8522,123.5834 59.8632,123.5784 59.8682,123.5724 L66.8052,118.7134 L66.8052,112.6904 L64.1922,114.5214 L64.1862,114.5214 C64.1812,114.5274 64.1762,114.5324 64.1652,114.5414 C62.4602,115.7314 60.1172,115.3204 58.9212,113.6154 C57.7252,111.9084 58.1422,109.5594 59.8462,108.3694 C59.8522,108.3634 59.8632,108.3584 59.8682,108.3524 L66.8052,103.4934 L66.8052,97.4694 L64.1922,99.3014 L64.1862,99.3014 C64.1812,99.3074 64.1762,99.3124 64.1652,99.3214 C62.4602,100.5114 60.1172,100.0974 58.9212,98.3954 C57.7252,96.6904 58.1422,94.3394 59.8462,93.1464 C59.8522,93.1434 59.8632,93.1374 59.8682,93.1304 L94.0532,69.1944 L94.0532,63.1724 L64.1922,84.0824 L64.1862,84.0794 C64.1812,84.0844 64.1762,84.0924 64.1652,84.0974 C62.4602,85.2944 60.1172,84.8774 58.9212,83.1734 C57.7252,81.4674 58.1422,79.1194 59.8462,77.9254 C59.8522,77.9214 59.8632,77.9184 59.8682,77.9124 L66.8052,73.0524 L66.8052,64.1104 L66.8052,64.0814 C66.8052,61.9194 68.5592,60.1634 70.7232,60.1634 C72.8882,60.1634 74.6412,61.9194 74.6412,64.0814 L74.6412,64.1104 L74.6412,67.5684 L94.0532,53.9744 L94.0532,45.5514 L94.0582,45.5514 C94.0582,45.5414 94.0532,45.5294 94.0532,45.5184 C94.0532,43.3574 95.8122,41.6034 97.9712,41.6034 C100.1362,41.6034 101.8892,43.3574 101.8892,45.5184 L101.8892,45.5514 L101.8892,53.9744 L121.3052,67.5684 L121.3052,64.1104 L121.3052,64.0814 C121.3052,61.9194 123.0592,60.1634 125.2232,60.1634 C127.3882,60.1634 129.1412,61.9194 129.1412,64.0814 C129.1412,64.0914 129.1362,64.0994 129.1362,64.1104 L129.1412,64.1104 L129.1412,73.0524 L136.0792,77.9124 L136.0742,77.9124 C136.0852,77.9184 136.0902,77.9214 136.1012,77.9254 C137.8052,79.1194 138.2172,81.4674 137.0262,83.1734 C135.8302,84.8774 133.4822,85.2944 131.7772,84.0974 C131.7712,84.0924 131.7662,84.0844 131.7552,84.0794 L131.7552,84.0824 L101.8892,63.1724 L101.8892,69.1944 L136.0792,93.1304 Z M97.9712,37.6804 C64.6792,37.7374 37.7452,64.6734 37.6802,97.9704 C37.7452,131.2674 64.6792,158.1964 97.9712,158.2574 C131.2682,158.1964 158.2012,131.2674 158.2612,97.9704 C158.2012,64.6734 131.2682,37.7374 97.9712,37.6804 L97.9712,37.6804 Z M101.8892,84.4154 L121.3052,98.0064 L121.3052,91.9824 L101.8892,78.3914 L101.8892,84.4154 Z M41.0362,150.6114 C40.9492,150.7474 40.2832,150.9014 40.1322,151.3044 C39.9802,151.7234 39.8722,152.1054 40.2302,152.3794 C40.4402,152.5304 40.1432,152.7114 39.7322,152.8114 C39.4292,152.8844 37.4922,153.0044 37.4482,152.4814 C37.4212,152.1104 38.2922,151.1384 39.2342,150.8364 C39.5152,150.6434 39.7152,150.1194 39.9862,150.0244 C40.4352,149.8304 41.1332,150.4894 41.0362,150.6114 L41.0362,150.6114 Z M36.4252,150.6494 C35.6402,151.1874 35.3262,151.9194 35.0452,151.8784 C34.6182,151.8214 34.2872,151.4504 33.9082,151.2824 C33.2322,150.9734 32.6102,150.7904 32.5452,150.6254 C32.4102,150.2654 32.8752,150.5684 33.2162,150.3254 C34.4452,149.4854 34.9862,148.9554 35.5002,149.0724 C36.0252,149.1914 36.2522,149.4234 36.5662,149.4854 C37.1942,149.6074 37.5992,149.4854 37.5622,149.6074 C37.5342,149.7154 37.0362,150.2214 36.4252,150.6494 L36.4252,150.6494 Z M31.9822,149.0314 C31.9012,148.2554 33.4542,148.4734 33.6982,148.7204 C34.1312,149.1674 32.0742,149.8704 31.9822,149.0314 L31.9822,149.0314 Z M35.9492,147.4974 C36.1172,146.8824 38.9042,147.5384 39.1692,148.0114 C39.3422,148.3284 39.0122,148.5364 38.3082,148.4384 C37.2692,148.2934 35.7812,148.0894 35.9492,147.4974 L35.9492,147.4974 Z M44.7002,148.8554 C43.7962,148.3464 43.1302,147.9634 42.9572,147.4054 C42.9462,147.3594 42.7832,146.7804 42.5952,146.6934 C42.4002,146.5934 42.3192,146.9214 41.9832,146.6474 C41.6582,146.3694 40.5332,145.1194 39.5372,144.7134 C39.1202,144.5404 38.6442,143.6714 38.1302,143.5924 C37.6212,143.5194 36.3112,143.8934 36.7712,144.9894 C36.9722,145.4654 38.3462,145.3834 39.3472,146.2334 C39.8342,146.6474 40.3922,146.4154 40.5332,147.1184 C40.5972,147.3944 40.4462,147.3594 40.3052,147.3704 C40.2132,147.3734 38.4002,146.4584 36.7342,146.0634 C35.5752,145.7874 34.5472,145.5654 34.1152,146.6074 C34.0222,146.8344 34.2222,147.7144 33.5522,147.4644 C32.9132,147.2454 31.8682,147.0804 31.4522,147.3814 C31.3012,147.4974 30.7972,147.9814 30.6782,148.1314 C30.1532,148.7884 31.0402,149.4104 30.7752,149.6184 C30.6572,149.7154 30.0182,149.2404 29.4232,149.1044 C29.0172,149.0144 28.5572,149.4234 28.3842,149.6374 C28.1242,149.9644 28.3842,150.0564 28.9792,150.6494 C29.9482,151.6014 30.3812,151.7694 31.8852,152.5384 C32.1882,152.6894 32.7782,153.0794 32.9722,153.4234 C33.1892,153.7854 32.6862,154.0864 32.2372,153.8414 C31.3172,153.3444 27.3882,151.2964 27.8422,153.5374 C27.9502,154.0674 28.7242,154.8024 29.0112,154.9494 C29.3312,155.1084 30.3152,155.2684 30.3592,155.7574 C30.4082,156.3184 28.8702,156.7514 29.1252,157.6764 C29.2872,158.2774 29.6072,158.7374 30.0132,158.5524 C30.6512,158.2574 31.8312,156.9214 32.1722,156.9594 C33.1672,157.0674 34.5742,159.4324 35.6132,158.8964 C36.8472,158.2714 36.7222,157.3764 36.3442,157.1084 C35.6892,156.6424 34.5632,156.0524 34.0662,155.5144 C33.8712,155.2954 34.2712,155.0224 34.5962,154.8404 C35.3972,154.4164 36.5122,156.2694 37.6432,157.2704 C38.4872,158.0224 38.2922,158.0954 38.7952,158.6294 C39.5042,159.3784 40.6952,159.1974 41.0962,157.9584 C41.2522,157.4844 38.9952,155.6794 38.1352,155.0654 C37.0472,154.2894 36.4092,154.0864 36.3982,153.5174 C36.4092,152.8794 37.1662,153.3494 37.1822,153.3694 C38.1402,154.2974 42.7242,154.9054 42.5952,152.0124 C42.5512,151.0284 43.3842,150.9634 42.4652,150.2164 C42.3882,150.1514 41.3442,149.5564 41.2902,149.2614 C41.2362,148.9884 41.7012,148.5194 42.1722,148.8724 C42.8222,149.3394 43.7742,150.2874 43.9092,150.3514 C45.2512,151.0714 46.3062,149.7484 44.7002,148.8554 L44.7002,148.8554 Z M41.9722,143.0304 C41.9722,143.0304 41.4422,142.5894 41.1772,142.5404 C40.8572,142.4484 40.8192,142.6374 40.5332,142.6564 C40.2352,142.6164 40.0292,142.8324 39.9212,143.0594 C39.6392,143.6604 40.2572,144.4284 41.3062,144.9624 C42.5842,145.6084 42.9732,143.7624 41.9722,143.0304 L41.9722,143.0304 Z M29.6392,123.3374 L27.6852,124.1784 L29.7632,128.9494 L25.8192,130.6624 L23.9352,126.3304 L21.9762,127.1844 L23.8652,131.5134 L20.3092,133.0584 L18.3132,128.4864 L16.3652,129.3334 L19.4162,136.3574 L32.7782,130.5484 L29.6392,123.3374 Z M60.3772,166.5754 C60.2582,167.3874 59.0672,167.9254 58.2342,168.1044 C57.9202,168.1724 57.5472,168.4374 57.3512,168.4834 C56.8482,168.5914 56.9132,168.3394 57.4002,167.8614 C57.6762,167.5984 58.2832,167.0034 57.9142,166.5704 C57.5522,166.1344 58.2062,165.0854 58.5422,165.4044 C59.1642,165.9994 60.4092,166.3754 60.3772,166.5754 L60.3772,166.5754 Z M62.3572,161.7594 C62.1572,161.3674 62.9042,160.4684 61.8272,160.4394 C61.6812,160.4254 61.0642,160.3334 60.8692,160.4394 C60.6852,160.5474 60.3442,161.2534 60.2632,161.2204 C59.7602,161.0054 58.9212,160.5954 57.7312,160.2604 C56.5992,159.9554 55.9772,159.1294 55.0572,159.3864 C54.6732,159.5004 54.3652,159.5184 54.0242,159.7434 C53.4282,160.1354 53.5532,161.0294 54.2082,161.4514 C54.4942,161.6374 56.4752,161.3724 57.2382,161.5644 C58.1312,161.7754 59.0292,162.0464 59.1102,162.4224 C59.1382,162.6144 58.9162,162.9154 58.5482,163.1724 C57.2162,164.0734 56.5452,163.6134 55.8252,163.6024 C55.6792,163.5964 55.7282,163.2964 55.9882,163.1664 C56.3292,162.9794 56.9842,162.9304 57.0112,162.8064 C57.0492,162.6464 56.0102,162.2704 55.0522,162.1834 C54.6832,162.1464 54.3812,162.2144 54.0672,162.2734 C53.1252,162.4414 51.7232,163.9374 51.1442,165.5634 C50.6742,166.9084 50.0352,167.9254 50.7222,168.5404 C51.5402,169.2624 52.0372,168.3614 52.6602,166.8514 C53.0122,165.9884 53.8292,165.5394 54.2672,165.3034 C54.4462,165.2074 55.0842,164.3484 56.2102,165.1204 C56.2532,165.1524 56.1612,165.4504 55.8252,165.4284 C55.3882,165.4124 54.8082,165.6554 54.6952,165.8964 C54.5542,166.2114 54.7052,166.6244 54.6402,167.0484 C54.5812,167.4844 53.7482,167.3664 54.3102,168.2394 C54.3482,168.3014 53.8022,168.5024 53.6012,168.3674 C53.5102,168.3014 53.5692,168.1184 53.4612,168.0744 C53.1522,167.9394 52.6272,168.6624 52.5412,168.7324 C52.0752,169.1344 51.3772,169.2814 50.6472,169.4554 C49.4022,169.7554 47.7192,170.2934 46.7612,170.6884 C45.6302,171.1564 45.7982,171.9844 46.9942,172.5774 C47.5192,172.8404 49.0502,172.2254 49.8082,171.9574 C50.3382,171.7704 51.4642,171.4054 51.9462,171.5464 C52.4542,171.7004 50.2032,174.2144 50.2362,174.6174 C50.2952,175.3014 51.2752,176.0944 51.7562,175.2614 C51.9722,174.8844 52.1672,174.3744 52.4762,173.7924 C52.7032,173.3374 53.1142,172.8774 53.3582,172.4794 C53.7042,171.9174 54.0292,171.3624 54.1862,171.4224 C54.5542,171.5594 54.4782,172.1604 54.7812,173.0054 C55.5012,174.9904 57.5792,177.1934 59.3652,178.1134 C60.4362,178.6654 61.2972,178.1994 60.8692,176.7734 C60.7772,176.4634 60.7012,176.2324 60.6372,176.0704 C60.4262,175.5374 60.4142,176.1134 59.3972,175.3214 C59.1102,175.1044 57.9472,173.8194 57.3082,173.2584 C57.0112,172.9854 56.5452,172.2764 56.2592,171.5974 C56.0852,171.1564 55.5552,170.9194 56.4802,170.4994 C57.0382,170.2504 56.6642,169.6034 57.1352,169.5254 C57.5352,169.4604 58.2882,169.5114 58.8022,169.4064 C59.4192,169.2814 60.2092,168.8484 61.1782,168.5214 C62.0872,168.2264 63.3962,166.5034 62.9092,165.7884 C62.5742,165.2884 61.8922,165.0474 61.0322,164.5034 C60.6042,164.2184 59.6362,164.7444 60.1222,164.0734 C60.4582,163.6184 60.5122,163.3934 61.0212,163.3824 C61.8162,163.3754 64.1112,164.6954 64.4412,163.3614 C64.7172,162.2874 62.8012,162.5894 62.3572,161.7594 L62.3572,161.7594 Z M15.5852,119.2404 L15.5692,119.2054 L21.7062,115.7424 L22.6692,119.5034 L15.5852,119.2404 Z M28.4432,119.6984 L24.7902,119.5474 L23.5512,114.6894 L26.7002,112.8334 L26.0182,110.1634 L13.0582,118.3074 L13.7832,121.1424 L29.1092,122.2824 L28.4432,119.6984 Z M45.6412,146.8064 C45.1652,146.3004 44.2452,145.9494 43.2492,146.1554 C42.6112,146.2854 43.1792,146.9564 43.3092,147.0934 C43.4502,147.2294 43.6012,147.1994 43.7252,147.2914 C44.2072,147.6594 44.5102,148.2794 44.8352,148.3334 C46.0902,148.5474 46.4312,147.6374 45.6412,146.8064 L45.6412,146.8064 Z M87.9542,178.4844 C87.3912,178.7924 87.0662,178.9224 86.7202,178.8464 C86.5362,178.8054 86.1952,178.3424 86.3142,178.1424 C86.6062,177.6364 86.4552,177.4124 86.5962,177.1334 C86.8452,176.6714 87.5272,176.8954 87.9592,176.9204 C88.5442,176.9654 88.9282,176.7734 88.9392,177.1984 C88.9392,177.1984 88.7122,178.0674 87.9542,178.4844 L87.9542,178.4844 Z M84.9082,174.6064 C84.4912,175.1674 83.9822,175.3804 83.7442,175.0804 C83.5762,174.8604 84.5992,174.0414 85.0752,173.5104 C85.6652,172.8504 85.7682,172.9774 85.9472,173.1374 C86.1462,173.3324 85.4752,173.8384 84.9082,174.6064 L84.9082,174.6064 Z M78.8142,173.4024 C77.8342,173.6084 77.5372,174.3174 77.3582,174.7154 C77.2722,174.8984 77.0342,174.8174 77.0172,174.6234 C76.9742,174.1784 77.0392,173.4024 77.4502,172.8584 C77.9972,172.1114 78.2462,171.5004 78.6682,171.0354 C79.2032,170.4314 79.8742,170.2204 80.0042,170.4014 C80.2642,170.7424 79.5722,171.0674 79.5232,171.3784 C79.3882,172.2684 79.2302,172.2654 78.9502,172.6664 C78.7602,172.9594 79.3232,173.2944 78.8142,173.4024 L78.8142,173.4024 Z M90.5082,175.0854 C89.6052,174.5924 87.9872,175.3884 87.6182,174.8124 C87.4722,174.5764 87.8942,174.1544 87.9812,173.8434 C88.1222,173.3324 87.8512,172.8504 87.4462,172.7174 C87.1912,172.6234 87.2182,172.2764 87.5322,172.2764 C87.9922,172.2684 88.2082,172.3394 88.6632,172.4174 C89.5232,172.5634 90.0272,172.5524 90.6172,171.8224 C90.7952,171.5974 90.7572,171.0754 90.4222,170.7864 C89.9992,170.4154 88.5712,170.2714 87.0662,170.1844 C85.4492,170.1034 83.7442,169.9364 83.3652,170.4914 C83.1812,170.7664 82.8022,171.0754 82.5962,171.4224 C82.2882,171.9354 82.1042,172.4064 81.7902,172.5934 C80.7842,173.1854 80.4052,174.5364 80.2592,174.0594 C80.1512,173.7324 79.6792,173.7244 79.4042,173.6404 C79.2792,173.5944 79.3232,173.2294 79.4742,173.1074 C79.6372,172.9854 79.6532,173.1074 79.8742,173.0374 C80.4812,172.8444 81.2382,172.2684 81.3902,171.8364 C81.7682,170.7374 82.2772,169.9274 81.8232,169.2434 C81.4382,168.6624 80.7132,168.3614 79.9612,168.2564 C79.5662,168.2024 78.9012,168.2154 78.4732,168.3614 C77.7372,168.6184 77.4232,169.4844 76.9142,170.5374 C76.7032,170.9624 76.2542,171.4864 76.0162,172.1584 C75.7132,173.0154 75.3242,174.2144 75.1392,174.8414 C74.7282,176.2324 74.5982,177.2154 74.8522,178.2464 C74.9772,178.7784 74.7612,179.5044 75.5022,179.6014 C76.1082,179.6794 75.9782,177.3824 76.2432,176.3544 C76.3572,175.9294 76.4872,175.5374 76.8332,175.3754 C76.9422,175.3294 77.0502,175.1314 77.2392,175.2394 C77.4182,175.3474 77.0502,175.9404 77.3582,175.9674 C77.8942,176.0134 78.2352,175.3754 78.6362,175.6504 C78.9502,175.8734 78.4302,176.4034 77.9642,176.7414 C77.0772,177.3964 76.5902,178.7034 77.7212,179.1004 C78.2082,179.2714 78.8352,178.6374 79.1282,177.9774 C79.3662,177.4644 79.3332,177.1144 79.5612,176.7164 C79.7342,176.3954 80.0322,176.3544 80.2812,175.9694 C80.5242,175.6104 80.7132,175.1794 81.0652,174.7574 C81.4762,174.2684 82.0392,173.7784 82.4242,173.3884 C82.8462,172.9474 83.2132,172.5234 83.6682,172.2824 C84.1172,172.0514 84.7672,171.9224 85.1292,172.2094 C85.3842,172.4204 84.2152,172.9944 83.4792,173.5754 C82.4672,174.3924 81.8342,175.4834 81.5142,176.9204 C81.3852,177.5044 80.9512,179.0954 81.3142,179.4794 C81.5792,179.7564 81.8232,179.8694 82.1802,179.8584 C83.1002,179.8284 82.8942,178.1024 83.4732,177.4234 C83.5982,177.2744 83.7221936,176.9984 83.9712,177.1554 C84.2312,177.3204 83.2682,180.6784 82.6672,182.6344 C82.2612,183.9814 82.1262,185.1184 81.9522,186.1924 C81.8832,186.6474 81.8342,187.0744 82.4882,187.2504 C83.4082,187.4944 83.9172,185.5154 84.2252,184.2854 C84.4852,183.2624 84.9342,181.7504 85.4212,181.2564 C85.9472,180.7084 87.1482,180.4184 87.8732,180.3124 C88.6142,180.1964 89.2962,179.3714 89.7292,179.0624 C90.3302,178.6434 90.9472,177.1144 91.1042,176.5704 C91.3152,175.8074 91.1042,175.4044 90.5082,175.0854 L90.5082,175.0854 Z M113.9842,172.9044 C113.7352,173.1214 113.4922,173.3454 113.4922,173.6754 C113.5082,174.0924 113.6482,174.4354 113.8972,174.5884 C114.0752,174.7154 114.3142,174.7224 114.5632,174.6254 C114.9252,174.4794 115.0442,174.0654 115.1792,173.6324 C115.2612,173.3594 115.3532,173.0784 115.4992,172.8264 C115.7102,172.4744 115.9532,172.3804 116.2082,172.2764 C116.4352,172.1844 116.6732,172.0984 116.8632,171.8224 C117.0412,171.5794 117.1012,171.3054 117.0192,171.0564 C116.9222,170.7484 116.6522,170.5064 116.2352,170.3554 C115.6722,170.1584 115.4452,170.5234 115.2882,170.7584 C115.2392,170.8474 115.1852,170.9314 115.1472,170.9374 L115.0982,170.9194 C114.7632,170.6344 114.8982,170.2664 115.0282,169.8774 C115.0932,169.6874 115.1632,169.4984 115.1852,169.3084 C115.2012,169.0484 115.1372,168.8624 114.9902,168.7584 C114.7682,168.6104 114.3952,168.6624 113.8752,168.9224 C113.6482,169.0294 113.4862,169.2564 113.3072,169.4954 C113.1452,169.7164 112.9722,169.9614 112.7282,170.1204 C112.0792,170.5264 111.6512,170.9754 111.3162,171.3384 C111.0782,171.6054 110.8832,171.8134 110.6882,171.9094 C110.5422,171.9764 110.2772,172.0254 109.9902,172.0764 C109.4872,172.1714 108.9192,172.2764 108.7292,172.5284 L108.4592,173.0314 C108.3402,173.2804 108.2212,173.5404 108.0962,173.5784 L108.0092,173.5674 C107.7932,173.4484 107.9232,173.0554 108.0532,172.6854 L108.1012,172.5394 C108.2742,172.0254 108.5722,171.6814 108.8322,171.3784 C108.9892,171.2024 109.1292,171.0384 109.2052,170.8704 C109.3512,170.5694 109.3082,170.2664 109.1082,170.0364 C108.8812,169.7874 108.4962,169.7014 108.1932,169.8204 C107.6192,170.0364 106.8782,171.1774 106.5432,171.8494 C106.3482,172.2524 106.2232,172.6664 106.1042,173.0784 C105.9802,173.5184 105.8502,173.9404 105.6342,174.3254 C105.4072,174.7334 105.6392,175.2634 105.9802,175.6104 C106.2882,175.9374 106.8132,176.2184 107.2682,175.9804 C107.3762,175.9264 107.4092,175.8024 107.4572,175.6674 C107.5382,175.4284 107.6252,175.1314 108.0792,175.0064 C108.2802,174.9584 108.4532,175.0804 108.6532,175.2344 C108.8862,175.4184 109.1572,175.6134 109.5462,175.4744 C109.9362,175.3344 110.1792,174.7824 110.3902,174.2984 L110.5582,173.9404 C110.8452,173.3594 112.2952,171.2564 112.9072,170.9564 C113.1942,170.8104 113.3832,170.7724 113.4922,170.8214 C113.6162,170.8814 113.6592,171.0674 113.7242,171.3184 L113.7672,171.5274 C113.8322,171.7414 114.0052,171.8304 114.1572,171.9094 C114.2922,171.9764 114.4062,172.0334 114.4222,172.1664 C114.4442,172.4794 114.2172,172.6824 113.9842,172.9044 L113.9842,172.9044 Z M180.3512,118.6424 L168.3212,115.4874 L167.6392,118.0714 L179.6752,121.2294 L178.8522,124.3604 L180.9142,124.9044 L183.2352,116.0374 L181.1842,115.4984 L180.3512,118.6424 Z M184.8752,100.0994 C184.7342,99.5374 184.4962,99.0364 184.1822,98.6114 C183.8632,98.1814 183.4632,97.8334 182.9762,97.5614 C182.4942,97.2974 181.9262,97.1484 181.2712,97.1244 C180.3192,97.0934 179.5452,97.2784 178.9282,97.6894 C178.3222,98.0974 177.7912,98.6524 177.3642,99.3644 L176.5692,100.6924 C176.3742,101.0084 176.2002,101.2774 176.0332,101.5064 C175.8702,101.7394 175.7022,101.9344 175.5302,102.0834 C175.3562,102.2374 175.1722,102.3514 174.9772,102.4224 C174.7772,102.4924 174.5552,102.5164 174.2792,102.5074 C173.9282,102.5004 173.6082,102.4264 173.3542,102.2994 C173.0942,102.1644 172.8832,102.0024 172.7102,101.7804 C172.5482,101.5634 172.4232,101.3264 172.3532,101.0574 C172.2722,100.7984 172.2502,100.5134 172.2552,100.2214 C172.2832,99.5094 172.4122,98.8934 172.6562,98.3524 C172.8882,97.8194 173.0942,97.4234 173.2672,97.1674 L170.9032,96.9314 C170.4312,97.6374 170.1832,98.7364 170.1292,100.2214 C170.1012,100.9234 170.1722,101.5634 170.3292,102.1594 C170.4862,102.7674 170.7352,103.2904 171.0872,103.7394 C171.4332,104.1884 171.8662,104.5534 172.4122,104.8244 C172.9532,105.0894 173.5872,105.2384 174.3232,105.2684 C174.8422,105.2874 175.2912,105.2494 175.6862,105.1634 C176.0602,105.0704 176.4172,104.9294 176.7202,104.7294 C177.0232,104.5354 177.3042,104.2774 177.5752,103.9774 C177.8402,103.6744 178.0952,103.3114 178.3492,102.8894 L179.2802,101.3584 C179.3992,101.1494 179.5232,100.9634 179.6422,100.7844 C179.7722,100.6084 179.9022,100.4494 180.0542,100.3114 C180.2052,100.1704 180.3842,100.0614 180.5842,99.9834 C180.7842,99.9084 181.0172,99.8784 181.2932,99.8884 C181.7962,99.9084 182.2022,100.0894 182.5102,100.4414 C182.8132,100.7984 182.9542,101.3014 182.9322,101.9754 C182.9062,102.5944 182.8132,103.1254 182.6562,103.5524 C182.4942,103.9884 182.3432,104.3644 182.2072,104.6804 L184.4372,104.8884 C184.5132,104.6804 184.6262,104.3214 184.7832,103.8064 C184.9462,103.2844 185.0372,102.6354 185.0592,101.8644 C185.0862,101.2474 185.0212,100.6634 184.8752,100.0994 L184.8752,100.0994 Z M169.3712,110.3224 L183.7872,112.4574 L184.1772,109.8114 L169.7662,107.6814 L169.3712,110.3224 Z M164.9932,125.7544 L163.9322,128.1994 L169.2522,130.4914 L175.6162,137.9194 L176.7582,135.2694 L172.4612,130.5154 L178.9332,130.2134 L180.0802,127.5664 L170.3672,128.0584 L164.9932,125.7544 Z M140.1322,165.5064 C140.5442,164.6954 140.5872,163.7614 139.7102,163.6504 C139.3802,163.6134 139.2452,163.5554 138.7152,163.8914 C137.8002,164.4634 138.1842,164.8714 137.5622,165.2824 C137.3072,165.4504 136.9882,164.2734 137.4482,163.8454 C138.4062,162.9534 139.3372,161.6304 138.9582,160.5424 C138.6382,159.6464 138.1032,158.9164 136.9612,160.0444 C136.3612,160.6334 135.5972,161.4754 135.1972,162.8204 C134.6832,164.5354 134.4232,166.4404 133.6442,167.6174 C133.1412,168.3754 133.0372,167.9314 132.4312,168.5054 C130.7432,170.0904 129.8562,171.5214 130.7382,172.3924 C131.3552,172.9964 132.1832,172.7824 132.6212,172.6294 C133.1682,172.4334 133.4822,171.9764 133.5842,172.2764 C133.6872,172.5774 133.2762,173.9144 133.0862,174.9764 C133.0162,175.4044 132.6382,176.3864 132.0692,177.1584 C131.1382,178.4574 130.8672,178.8864 131.1762,179.2794 C131.5552,179.7424 132.1942,179.6664 132.7192,179.2714 C133.3082,178.8334 135.2782,175.5964 135.7922,172.0764 C135.8842,171.4464 136.2842,170.7104 136.4422,170.1934 C136.6532,169.4984 136.4852,169.0514 136.8422,168.5644 C137.9462,167.1144 139.5802,166.5564 140.1322,165.5064 L140.1322,165.5064 Z M147.4222,168.2424 C146.7832,167.4384 145.4902,167.7604 144.1152,168.6394 C143.3092,169.1544 142.3132,169.3004 141.7072,169.4554 C139.8622,169.9364 138.3732,169.3224 137.9092,169.4494 C137.4482,169.5764 137.6972,170.7344 138.0812,171.2724 C139.1692,172.8404 142.3242,172.2064 144.1802,171.5844 C144.9002,171.3404 145.6582,170.6014 146.2632,170.1844 C146.9182,169.7524 147.5842,169.6034 147.5302,169.1544 C147.4712,168.6994 147.6922,168.5864 147.4222,168.2424 L147.4222,168.2424 Z M154.9762,150.8554 C154.9762,150.8554 154.8082,150.6784 154.7922,150.6764 C154.3702,150.5274 154.4462,149.3614 154.4892,149.3154 C155.1002,148.8264 155.9932,151.0144 154.9762,150.8554 L154.9762,150.8554 Z M154.7542,145.7874 C154.9762,145.0844 154.7432,144.9194 154.9382,144.6044 C155.2032,144.2104 155.7772,144.3154 156.2052,144.6854 C156.6052,145.0354 156.8812,145.6284 156.5952,145.9604 C156.2752,146.3444 155.8102,145.8874 155.5882,146.0854 C155.3282,146.3284 155.4252,146.9454 155.8312,146.9154 C156.1992,146.8824 156.4372,147.2724 156.5242,147.6814 C156.5562,147.8564 156.3942,148.2274 156.4592,148.3844 C156.5512,148.6094 156.9942,148.6694 157.1032,148.8844 C157.1952,149.0904 156.8542,149.7084 156.4812,149.6774 C155.8912,149.6184 156.0102,148.4934 155.7662,148.2524 C154.5112,146.9884 154.6572,146.1094 154.7542,145.7874 L154.7542,145.7874 Z M153.7962,151.4214 C153.4992,151.4934 153.3902,151.6504 153.1252,151.3014 C152.5412,150.5274 152.4542,149.5054 152.7422,149.1294 C153.3472,148.3174 153.3092,149.6774 153.3582,149.8564 C153.4712,150.2384 154.0832,151.3394 153.7962,151.4214 L153.7962,151.4214 Z M153.3092,154.2804 C153.0602,154.3884 152.7522,153.7854 152.3032,153.3634 C151.6642,152.7434 150.8252,151.9624 150.8902,151.8294 C150.9992,151.6014 150.9012,150.6494 151.1562,150.6924 C151.5782,150.7654 151.9892,151.8814 152.2492,152.2374 C152.6712,152.9844 152.8982,152.5134 153.1042,153.3814 C153.2182,153.8754 153.6452,154.1364 153.3092,154.2804 L153.3092,154.2804 Z M156.5082,152.1884 C157.4982,151.0664 158.1752,149.8304 158.7542,149.1154 C159.0682,148.7314 159.5332,148.4384 159.8252,148.0114 C160.1502,147.5214 160.5072,148.1604 160.8212,148.1034 C161.6112,147.9574 162.3362,147.3614 162.3042,146.7564 C162.3302,146.3744 162.0382,145.7684 161.2912,145.4114 C159.8952,144.7314 158.8352,147.8164 158.0172,147.5594 C157.8342,147.5034 157.8232,146.2224 157.8392,146.4794 C157.7962,145.7464 157.6332,144.8214 157.1522,144.0554 C156.7622,143.4414 156.4372,143.5044 156.0692,143.2674 C155.7722,143.0814 155.5502,142.7924 155.1382,142.7514 C154.0892,142.6314 153.5962,143.4244 153.6232,144.1204 C153.6452,144.8674 154.2452,146.1554 153.8292,146.6264 C153.3742,147.1514 152.9042,147.1244 152.7202,146.7664 C152.4602,146.2634 152.4222,145.2244 152.0922,145.0484 C151.9082,144.9484 151.4802,145.2214 151.2372,145.6734 C150.9932,146.1254 151.4802,147.2214 150.9182,147.4324 C150.6582,147.5294 150.3332,146.9944 150.1002,147.0454 C149.4462,147.1974 150.1872,148.9154 149.7922,149.3964 C149.1052,150.2324 149.2072,150.7904 149.6032,151.6014 C149.9062,152.1944 150.5872,153.0254 150.9552,153.7144 C151.3672,154.5054 152.1572,154.9814 152.0922,155.3654 C152.0112,155.7794 151.8212,155.5254 151.5672,155.8524 C151.1992,156.3234 152.3142,158.9374 153.8022,159.7954 C154.0832,159.9554 154.8572,160.0164 155.0852,159.5944 C155.5072,158.8154 153.8622,158.3474 153.5532,157.5034 C153.3422,156.9404 154.6302,155.3924 155.2842,154.2154 C155.5772,153.6794 155.9122,152.8654 156.5082,152.1884 L156.5082,152.1884 Z M162.4072,151.2664 C162.0822,151.4394 161.1402,153.2334 160.4532,153.9944 C160.1882,154.2864 159.9662,154.2294 159.8042,154.0754 C159.2302,153.5604 160.9892,151.9484 160.3992,151.4124 C159.5222,150.6174 158.6082,150.9014 157.8882,151.8914 C157.8882,151.8914 157.0492,153.1604 156.1782,154.1944 C155.4632,155.0594 155.0792,156.7234 155.8742,157.0404 C156.7022,157.3764 157.3852,156.6164 157.5692,155.7124 C157.6332,155.4174 157.5252,155.3744 157.4712,155.1084 C157.4012,154.7844 157.6552,154.6544 157.6552,154.4694 C157.6442,153.9184 157.6012,153.6094 158.0292,153.6554 C158.1852,153.6724 158.5422,154.3124 158.6232,154.4974 C158.7702,154.8354 158.9212,155.4234 158.7542,155.8254 C158.1962,157.1894 157.3902,158.5234 157.9582,159.2584 C158.0822,159.4244 158.9272,159.5054 159.2302,159.3514 C159.5922,159.1734 159.5222,158.8354 159.7552,158.1204 C159.8462,157.8414 160.4312,157.5104 160.5182,157.2704 C160.6972,156.8384 160.7072,156.0834 160.9452,156.1364 C161.4162,156.2504 162.0762,157.1864 162.1952,158.2254 C162.2712,158.8474 162.1792,159.5514 161.8542,159.7954 C161.7352,159.8794 161.1722,160.6124 161.6052,161.1314 C162.1032,161.7134 162.6772,161.6304 162.9802,161.4724 C164.3062,160.7884 163.9812,159.3594 163.9102,157.8774 C163.8782,157.0994 163.5812,156.2884 163.3432,155.9584 C162.9692,155.4174 163.1422,155.3544 162.9372,155.1654 C162.5362,154.7974 162.1632,154.8354 162.1682,154.6434 C162.2112,154.0234 162.9912,153.5494 163.1212,153.3874 C163.3262,153.1414 163.9062,152.6514 164.0192,152.1534 C164.2352,151.2014 162.7802,151.0574 162.4072,151.2664 L162.4072,151.2664 Z M121.5542,177.8964 C120.9212,177.9774 120.9272,178.7654 120.9272,179.4034 L120.9162,179.8824 C120.8242,180.8384 119.2922,181.9654 117.9122,182.5454 L117.5332,182.7054 C116.8632,183.0054 116.3432,183.2384 115.5152,182.9294 C115.1532,182.8024 114.8062,182.1294 114.7362,181.4324 C114.6872,180.8864 114.8232,180.4644 115.1152,180.2914 C115.2442,180.2074 115.2832,180.2484 115.3532,180.3294 C115.5102,180.4894 115.6942,180.5864 116.3762,180.0664 C116.4352,180.0174 116.4462,179.8524 116.4682,179.5314 C116.4892,179.2714 116.5112,178.9674 116.5812,178.7844 L116.8082,178.2324 L116.9662,177.8474 C117.0362,177.2424 116.8192,176.6844 116.3592,176.3224 C115.8402,175.9164 115.1152,175.8324 114.4222,176.1024 C113.3992,176.4984 112.4742,177.3524 111.6512,178.0994 C110.8242,178.8544 110.0982,179.5114 109.4432,179.5854 C109.2052,179.6124 109.0272,179.5114 108.8752,179.4204 C108.7132,179.3394 108.5772,179.2494 108.4262,179.3174 C108.2152,179.3984 108.0262,179.7564 107.8042,180.5184 C107.7552,180.6654 107.7552,180.9404 107.7612,181.2654 C107.7662,181.7764 107.7772,182.4234 107.5492,182.6264 C107.4842,182.6804 107.4032,182.6994 107.3052,182.6804 C107.2082,182.6674 107.1382,182.6214 107.0952,182.5344 C106.8782,182.1534 107.2082,181.2704 107.2142,181.2564 C107.2192,181.2524 107.2682,180.5134 107.2682,180.5134 C107.2682,180.2864 107.2632,180.0754 107.3052,179.8904 C107.6032,178.8404 108.4962,178.5414 109.4492,178.2214 C109.9362,178.0564 110.6122,177.3664 110.7212,177.1844 C110.9212,176.8194 110.5362,176.4844 110.2172,176.2184 L110.1682,176.1814 C109.6492,175.7264 109.1672,175.6564 108.7072,175.9484 C108.3282,176.2004 107.8802,176.7684 107.3652,177.4344 C106.9762,177.9344 106.5702,178.4514 106.1422,178.8954 L105.9912,179.0474 C105.1032,179.9284 104.1022,181.0084 104.2052,181.4904 C104.2212,181.5794 104.2812,181.6494 104.3842,181.6874 C104.7892,181.8494 105.1362,181.3844 105.4392,180.9844 C105.6722,180.6654 105.8932,180.3724 106.0672,180.4724 C106.1372,180.5134 106.1642,180.5484 106.1802,180.6104 C106.2132,180.7084 106.1592,180.8764 106.0232,181.1004 L105.9532,181.1954 C105.7962,181.4574 105.6392,181.6954 105.6172,182.3804 C105.5902,183.3434 105.8022,183.5414 106.1592,183.8574 L106.5272,184.2194 C106.6892,184.4014 106.7272,184.7204 106.7542,184.9314 L106.8082,185.1624 C107.0572,185.3914 107.2242,185.3564 107.3442,185.3274 C107.4472,185.3104 107.5062,185.2974 107.5822,185.4004 C107.7662,185.6484 107.7442,186.2954 107.6192,186.3874 C107.6152,186.3924 107.5982,186.4094 107.5382,186.3394 C107.4032,186.1714 107.0732,186.2554 106.9432,186.2874 C106.5972,186.3844 106.5102,186.6764 106.4462,186.9394 L106.3812,187.1334 C106.0392,188.0914 106.5542,188.5084 107.1112,188.7964 C107.4472,188.9654 107.7332,189.1094 108.2692,188.7714 C108.7402,188.4764 108.7402,187.6514 108.7402,186.7794 L108.7402,186.4984 C108.7452,185.6864 108.8212,184.9854 108.9342,184.5804 C109.0752,184.0854 109.0002,183.7224 108.9402,183.4264 L108.8862,183.0104 C108.9402,182.4694 109.2112,182.2344 109.5682,181.9414 C109.7522,181.7874 109.9632,181.6114 110.1582,181.3684 L110.6122,180.8054 C111.1592,180.0964 111.6022,179.5394 112.4142,178.9874 C112.6792,178.8134 112.9502,178.5414 113.2042,178.2784 C113.5562,177.9234 113.9242,177.5554 114.3032,177.3874 L114.3792,177.3524 C114.7252,177.2044 115.3582,176.9154 115.6022,177.1204 C115.6832,177.1844 115.9532,177.7344 115.8622,178.0214 C115.8292,178.1244 115.7592,178.1774 115.6342,178.1884 C115.4392,178.1994 115.4022,178.0914 115.3582,177.9074 C115.3312,177.7804 115.3042,177.6644 115.1852,177.6044 C114.9852,177.5044 114.3682,177.6694 114.3572,177.6774 C114.1242,177.7344 113.9782,178.0294 113.7892,178.3704 C113.6592,178.6114 113.5132,178.8864 113.3132,179.1084 C112.5932,179.9214 112.5502,181.2784 112.8852,182.1934 C113.2692,183.2544 113.8862,183.6004 114.2542,183.8084 L114.4762,183.9574 C115.3742,184.7284 116.5652,185.2864 119.1902,184.0924 C120.9162,183.3134 122.1992,182.1474 122.7072,180.8944 C122.9402,180.3234 122.7562,178.9064 122.2472,178.2464 C122.0472,177.9834 121.8142,177.8674 121.5542,177.8964 L121.5542,177.8964 Z M125.6292,18.0804 L125.6672,18.0954 L125.1802,25.1254 L121.5112,23.8624 L125.6292,18.0804 Z M118.1782,28.5814 L120.3152,25.6124 L125.0452,27.2504 L124.8662,30.8914 L127.4702,31.7934 L127.7942,16.4884 L125.0292,15.5364 L115.6562,27.7104 L118.1782,28.5814 Z M65.0962,33.5184 L60.3612,23.1994 L60.3982,23.1824 L69.5172,31.4984 L72.4232,30.1614 L66.3512,16.9164 L64.1432,17.9274 L68.9102,28.3264 L68.8782,28.3454 L59.7112,19.9654 L56.8162,21.2834 L62.8932,34.5314 L65.0962,33.5184 Z M136.3982,34.2304 L132.1562,31.9844 L137.9622,20.9824 L135.5972,19.7384 L128.7952,32.6204 L135.4132,36.1114 L136.3982,34.2304 Z M91.3152,13.5014 C92.0722,13.4444 92.6672,13.5524 93.0952,13.7984 C93.5342,14.0484 93.7832,14.5864 93.8362,15.4204 C93.8852,16.1744 93.7062,16.7434 93.2952,17.1354 C92.8842,17.5224 92.3212,17.7444 91.6122,17.7904 L90.5302,17.8634 L90.2322,13.5714 L91.3152,13.5014 Z M91.0932,26.0704 L90.6652,19.8254 L91.2662,19.7844 C91.7582,19.7494 92.1752,19.8274 92.5322,20.0274 C92.8842,20.2124 93.1712,20.5984 93.3872,21.1674 L95.1512,25.7944 L97.9872,25.6014 L95.7142,20.1874 C95.5742,19.8684 95.4332,19.6004 95.2922,19.3944 C95.1402,19.1804 95.0002,19.0324 94.8482,18.9184 C94.7082,18.8104 94.5562,18.7374 94.4212,18.6994 C94.2752,18.6564 94.1342,18.6314 93.9882,18.6104 L93.9882,18.5504 C94.8002,18.3694 95.4442,17.9634 95.9312,17.3274 C96.4182,16.6994 96.6292,15.9014 96.5692,14.9384 C96.5212,14.2804 96.3742,13.7134 96.1372,13.2444 C95.8982,12.7824 95.5682,12.4054 95.1682,12.1214 C94.7672,11.8294 94.2912,11.6314 93.7442,11.5184 C93.2032,11.4014 92.6082,11.3664 91.9702,11.4104 L87.4352,11.7154 L88.4252,26.2544 L91.0932,26.0704 Z M75.5402,17.2324 C75.7132,16.7564 75.9512,16.3814 76.2702,16.0984 C76.5842,15.8204 76.9472,15.6314 77.3532,15.5284 C77.7532,15.4254 78.1702,15.4254 78.5702,15.5284 C78.9872,15.6284 79.3822,15.8494 79.7392,16.1994 C80.1132,16.5464 80.4482,17.0354 80.7672,17.6764 C81.0922,18.3124 81.3742,19.1194 81.6172,20.0904 C81.8552,21.0614 81.9802,21.9084 81.9912,22.6204 C82.0072,23.3344 81.9262,23.9294 81.7682,24.4064 C81.6122,24.8814 81.3682,25.2604 81.0492,25.5424 C80.7292,25.8214 80.3672,26.0104 79.9612,26.1054 C79.5612,26.2084 79.1552,26.2084 78.7432,26.1104 C78.3272,26.0104 77.9372,25.7914 77.5752,25.4444 C77.2072,25.0954 76.8712,24.6004 76.5412,23.9654 C76.2162,23.3294 75.9402,22.5224 75.7022,21.5504 C75.4592,20.5774 75.3292,19.7334 75.3242,19.0264 C75.3132,18.3064 75.3832,17.7094 75.5402,17.2324 L75.5402,17.2324 Z M74.3012,25.3824 C74.8422,26.2184 75.4372,26.8714 76.1032,27.3334 C76.7742,27.7884 77.4772,28.0774 78.2352,28.1914 C78.9872,28.3074 79.7282,28.2804 80.4532,28.0934 C81.1902,27.9184 81.8552,27.5984 82.4672,27.1464 C83.0832,26.6954 83.5762,26.1054 83.9442,25.3964 C84.3232,24.6784 84.5502,23.8274 84.6372,22.8284 C84.7182,21.8334 84.5992,20.6994 84.2962,19.4244 C83.9762,18.1614 83.5542,17.1084 83.0192,16.2664 C82.4772,15.4144 81.8712,14.7674 81.2112,14.3074 C80.5462,13.8534 79.8372,13.5604 79.0842,13.4444 C78.3322,13.3374 77.5862,13.3664 76.8662,13.5454 C76.1352,13.7234 75.4592,14.0424 74.8522,14.4924 C74.2362,14.9464 73.7382,15.5284 73.3652,16.2534 C72.9962,16.9624 72.7632,17.8194 72.6772,18.8184 C72.5962,19.8084 72.7102,20.9394 73.0292,22.2094 C73.3382,23.4804 73.7652,24.5384 74.3012,25.3824 L74.3012,25.3824 Z M104.0862,13.7424 L104.1292,13.7424 L106.0562,26.2344 L107.9392,26.4834 L113.0962,14.8834 L113.1342,14.8924 L111.6082,26.9434 L114.0112,27.2504 L115.8402,12.7984 L112.0192,12.3104 L107.5982,22.7064 L107.5552,22.7064 L105.9482,11.5374 L101.9862,11.0344 L100.1522,25.4914 L102.5542,25.7944 L104.0862,13.7424 Z M168.9062,83.1644 L170.9682,82.6074 L169.5882,77.5904 L173.7332,76.4514 L174.9832,81.0074 L177.0342,80.4454 L175.7892,75.8964 L179.5342,74.8714 L180.8492,79.6824 L182.9062,79.1254 L180.8812,71.7304 L166.8272,75.5754 L168.9062,83.1644 Z M143.7852,42.0424 C144.1102,42.5864 144.5372,43.0814 145.0622,43.5364 C145.5762,43.9734 146.1282,44.3234 146.7132,44.5634 C147.2922,44.8124 147.8872,44.9154 148.5152,44.8824 C149.1422,44.8504 149.7702,44.6704 150.4042,44.3254 C151.0422,43.9824 151.6702,43.4494 152.2982,42.7184 L158.4612,35.5784 L156.4432,33.8334 L150.2732,40.9734 C149.4842,41.8934 148.7912,42.4074 148.2062,42.5094 C147.6112,42.6184 147.0322,42.4234 146.4532,41.9284 C145.8632,41.4094 145.5762,40.8654 145.6032,40.2584 C145.6142,39.6644 146.0252,38.9064 146.8162,37.9914 L152.9792,30.8454 L150.9552,29.1004 L144.7922,36.2434 C144.1642,36.9714 143.7312,37.6724 143.4822,38.3514 C143.2392,39.0364 143.1472,39.6824 143.2062,40.3024 C143.2662,40.9294 143.4552,41.5064 143.7852,42.0424 L143.7852,42.0424 Z M182.1262,86.7854 L182.2562,87.8564 C182.3372,88.6034 182.2722,89.2014 182.0342,89.6474 C181.8072,90.0934 181.2822,90.3624 180.4542,90.4594 C179.7012,90.5464 179.1282,90.3914 178.7222,89.9914 C178.3052,89.6044 178.0622,89.0494 177.9812,88.3484 L177.8562,87.2694 L182.1262,86.7854 Z M169.6852,88.2114 L175.9082,87.4964 L175.9782,88.0944 C176.0332,88.5764 175.9682,89.0014 175.7952,89.3634 C175.6272,89.7284 175.2532,90.0294 174.6962,90.2784 L170.1502,92.2514 L170.4752,95.0754 L175.7782,92.5484 C176.0922,92.4024 176.3522,92.2484 176.5522,92.0934 C176.7522,91.9364 176.9042,91.7884 177.0012,91.6334 C177.1042,91.4794 177.1752,91.3334 177.1962,91.1874 C177.2342,91.0464 177.2612,90.9004 177.2662,90.7564 L177.3262,90.7524 C177.5482,91.5524 177.9862,92.1824 178.6462,92.6394 C179.2962,93.1004 180.1022,93.2764 181.0542,93.1654 C181.7212,93.0874 182.2832,92.9164 182.7322,92.6534 C183.1872,92.3884 183.5442,92.0554 183.8142,91.6334 C184.0792,91.2194 184.2582,90.7324 184.3502,90.1884 C184.4422,89.6424 184.4482,89.0414 184.3722,88.4144 L183.8582,83.8924 L169.3822,85.5564 L169.6852,88.2114 Z M152.5572,50.6224 L161.4002,43.4954 L161.4322,43.5304 L155.6092,54.4074 L157.6122,56.9024 L168.9602,47.7564 L167.4452,45.8654 L158.5322,53.0444 L158.5102,53.0164 L164.3762,42.0634 L162.3852,39.5924 L151.0422,48.7364 L152.5572,50.6224 Z M164.5602,69.8084 L179.6752,67.8744 L178.5442,65.3694 L167.0602,67.2194 L167.0442,67.1814 L176.0712,59.8864 L174.8912,57.2644 L163.4082,67.2384 L164.5602,69.8084 Z M160.5612,61.8424 L173.0132,54.2834 L171.6282,51.9994 L159.1702,59.5624 L160.5612,61.8424 Z M37.5512,57.9844 L25.2882,50.0964 L23.8432,52.3504 L36.1002,60.2324 L37.5512,57.9844 Z M31.3872,69.1544 L25.5802,66.3944 L27.4372,62.4924 L33.2432,65.2504 L34.3902,62.8414 L21.2292,56.5774 L20.0882,58.9974 L25.4402,61.5454 L23.5782,65.4414 L18.2312,62.8984 L17.0842,65.3144 L30.2402,71.5644 L31.3872,69.1544 Z M12.9332,95.2864 L25.3592,95.9144 L25.4942,93.2464 L13.0692,92.6154 L13.2262,89.3904 L11.1042,89.2774 L10.6392,98.4304 L12.7652,98.5364 L12.9332,95.2864 Z M15.0332,78.1964 C15.5312,78.9004 16.1752,79.5174 16.9872,80.0424 C17.7872,80.5644 18.7082,80.9724 19.7202,81.2564 C20.7592,81.5484 21.7492,81.6784 22.7012,81.6544 C23.6542,81.6284 24.5312,81.4324 25.3262,81.0814 C26.1212,80.7234 26.8092,80.1964 27.4042,79.4984 C27.9992,78.7994 28.4542,77.9124 28.7522,76.8434 C28.9352,76.2004 29.0542,75.5864 29.1252,75.0014 C29.1842,74.4244 29.1792,73.9754 29.1092,73.6704 L26.7172,73.1444 C26.8462,73.4944 26.9172,73.9054 26.9392,74.3684 C26.9502,74.8254 26.8682,75.3774 26.6902,76.0004 C26.5382,76.5354 26.3052,77.0194 25.9862,77.4364 C25.6612,77.8614 25.2452,78.1964 24.7312,78.4434 C24.2272,78.6924 23.6162,78.8274 22.9122,78.8594 C22.2092,78.8944 21.4032,78.7814 20.4882,78.5244 C19.5792,78.2644 18.8322,77.9484 18.2592,77.5454 C17.6692,77.1554 17.2202,76.7144 16.9162,76.2404 C16.6142,75.7614 16.4352,75.2604 16.3812,74.7304 C16.3212,74.2004 16.3702,73.6704 16.5272,73.1314 C16.7112,72.4824 16.9492,71.9674 17.2632,71.5944 C17.5662,71.2264 17.8202,70.9284 18.0362,70.6934 L15.7642,69.9064 C15.5912,70.1414 15.3472,70.5174 15.0502,71.0124 C14.7572,71.5184 14.5082,72.1324 14.3032,72.8554 C14.0112,73.9004 13.9342,74.8744 14.0752,75.7754 C14.2212,76.6754 14.5352,77.4824 15.0332,78.1964 L15.0332,78.1964 Z M15.2122,109.9414 C16.1592,109.8514 16.9062,109.5754 17.4692,109.0894 C18.0262,108.6094 18.4752,107.9814 18.8102,107.2324 L19.4442,105.8174 C19.5902,105.4734 19.7362,105.1844 19.8662,104.9324 C20.0012,104.6894 20.1372,104.4724 20.2882,104.2984 C20.4452,104.1314 20.6182,103.9884 20.8022,103.8984 C20.9862,103.8064 21.2132,103.7504 21.4732,103.7224 C21.8362,103.6934 22.1552,103.7224 22.4312,103.8144 C22.7012,103.9124 22.9342,104.0524 23.1232,104.2454 C23.3182,104.4374 23.4702,104.6624 23.5672,104.9194 C23.6812,105.1784 23.7462,105.4464 23.7732,105.7444 C23.8322,106.4474 23.7832,107.0844 23.6162,107.6434 C23.4542,108.1984 23.2972,108.6234 23.1512,108.8964 L25.5372,108.8324 C25.9002,108.0714 26.0182,106.9514 25.8892,105.4674 C25.8242,104.7754 25.6722,104.1424 25.4452,103.5694 C25.2122,102.9984 24.8982,102.5074 24.4982,102.1024 C24.0972,101.6994 23.6162,101.3934 23.0422,101.1934 C22.4742,100.9964 21.8252,100.9274 21.0892,100.9964 C20.5752,101.0424 20.1372,101.1284 19.7522,101.2684 C19.3892,101.4044 19.0592,101.5904 18.7832,101.8264 C18.5022,102.0564 18.2592,102.3454 18.0312,102.6814 C17.8092,103.0084 17.5982,103.4064 17.4042,103.8584 L16.6672,105.4924 C16.5702,105.7094 16.4832,105.9154 16.3752,106.0984 C16.2732,106.2944 16.1542,106.4714 16.0232,106.6314 C15.8932,106.7894 15.7262,106.9164 15.5422,107.0154 C15.3582,107.1194 15.1252,107.1804 14.8492,107.2054 C14.3512,107.2544 13.9292,107.1194 13.5772,106.8074 C13.2262,106.4964 13.0202,106.0044 12.9662,105.3384 C12.9122,104.7154 12.9392,104.1804 13.0472,103.7334 C13.1452,103.2794 13.2472,102.8954 13.3402,102.5624 L11.1102,102.6324 C11.0612,102.8484 10.9912,103.2224 10.8992,103.7534 C10.8072,104.2834 10.7962,104.9374 10.8612,105.7144 C10.9152,106.3234 11.0502,106.8994 11.2622,107.4384 C11.4782,107.9764 11.7752,108.4424 12.1382,108.8264 C12.5122,109.2154 12.9552,109.5104 13.4692,109.7154 C13.9832,109.9194 14.5682,109.9984 15.2122,109.9414 L15.2122,109.9414 Z M40.7382,53.5084 L32.0912,46.1574 L32.1232,46.1224 L43.8882,49.8014 L45.9602,47.3724 L34.8672,37.9344 L33.2922,39.7774 L42.0102,47.1854 L41.9772,47.2174 L30.1262,43.5034 L28.0702,45.9144 L39.1692,55.3574 L40.7382,53.5084 Z M44.1472,32.5744 L44.1802,32.5424 L49.9052,36.6464 L46.9022,39.1114 L44.1472,32.5744 Z M49.1802,44.4234 L47.7632,41.0514 L51.6422,37.8784 L54.6572,39.9454 L56.7892,38.1974 L43.9262,29.8904 L41.6582,31.7444 L47.1022,46.1174 L49.1802,44.4234 Z"/>
        <path d="M653.9888,153.9601 L653.9888,143.3481 L664.3938,143.3481 C666.4548,143.3481 668.0598,143.8131 669.2118,144.7391 C670.3628,145.6661 670.9378,146.9541 670.9378,148.6041 C670.9378,150.3201 670.3628,151.6421 669.2118,152.5691 C668.0598,153.4961 666.4548,153.9601 664.3938,153.9601 L653.9888,153.9601 Z M674.5698,154.8101 C675.9598,153.0421 676.6558,150.9041 676.6558,148.3971 C676.6558,145.3741 675.5908,142.9011 673.4608,140.9791 C671.3658,139.0901 668.4648,138.1451 664.7558,138.1451 L648.3218,138.1451 L648.3218,174.2061 L653.9888,174.2061 L653.9888,158.9571 L662.4368,158.9571 L673.3068,174.2061 L680.1588,174.2061 L668.8248,158.3391 C671.2638,157.7561 673.1778,156.5791 674.5698,154.8101 L674.5698,154.8101 Z M702.2328,154.3721 L690.5388,138.1451 L684.7678,138.1451 L684.7678,174.2061 L690.4358,174.2061 L690.4358,146.8001 L700.4808,160.4001 L703.7778,160.4001 L713.8228,146.8001 L713.8228,174.2061 L719.4898,174.2061 L719.4898,138.1451 L713.8228,138.1451 L702.2328,154.3721 Z M735.8048,160.2451 L742.3988,145.0991 L748.9928,160.2451 L735.8048,160.2451 Z M739.7208,137.9391 L723.9558,174.2061 L729.9838,174.2061 L733.8478,165.2421 L750.9508,165.2421 L754.8648,174.2061 L760.9438,174.2061 L745.1808,137.9391 L739.7208,137.9391 Z M632.3888,165.7571 C629.9498,168.2991 626.9618,169.5691 623.4248,169.5691 C619.8878,169.5691 616.8998,168.2991 614.4618,165.7571 C612.0568,163.2161 610.8548,160.0221 610.8548,156.1751 C610.8548,152.3301 612.0568,149.1521 614.4618,146.6451 C616.8998,144.0701 619.8878,142.7811 623.4248,142.7811 C626.9618,142.7811 629.9498,144.0701 632.3888,146.6451 C634.8278,149.1871 636.0458,152.3641 636.0458,156.1751 C636.0458,159.9531 634.8278,163.1481 632.3888,165.7571 L632.3888,165.7571 Z M623.4248,137.4761 C618.1358,137.4761 613.7398,139.2791 610.2378,142.8841 C606.7668,146.4561 605.0328,150.8871 605.0328,156.1751 C605.0328,161.4311 606.7668,165.8781 610.2378,169.5181 C613.7398,173.0901 618.1358,174.8751 623.4248,174.8751 C628.7128,174.8751 633.1098,173.0901 636.6138,169.5181 C640.1158,165.9121 641.8678,161.4651 641.8678,156.1751 C641.8678,150.8871 640.1158,146.4561 636.6138,142.8841 C633.1098,139.2791 628.7128,137.4761 623.4248,137.4761 L623.4248,137.4761 Z M771.0978,138.1451 L765.3788,138.1451 L765.3788,174.2061 L790.2618,174.2061 L790.2618,169.0021 L771.0978,169.0021 L771.0978,138.1451 Z M399.9678,165.8091 C397.4248,163.2681 396.1548,160.0571 396.1548,156.1751 C396.1548,152.2941 397.4078,149.1011 399.9158,146.5931 C402.4568,144.0521 405.6158,142.7811 409.3938,142.7811 C412.9668,142.7811 416.2118,143.7271 419.1318,145.6141 L419.1318,139.8971 C416.2798,138.2821 413.0168,137.4761 409.3418,137.4761 C403.8468,137.4761 399.3138,139.2451 395.7418,142.7811 C392.1368,146.2851 390.3338,150.7501 390.3338,156.1751 C390.3338,161.6031 392.1368,166.0841 395.7418,169.6211 C399.4168,173.1241 403.9508,174.8751 409.3418,174.8751 C413.3608,174.8751 416.8818,173.9141 419.9038,171.9901 L419.9038,166.2731 C417.1548,168.4711 413.7218,169.5691 409.5998,169.5691 C405.7188,169.5691 402.5088,168.3161 399.9678,165.8091 L399.9678,165.8091 Z M464.4738,174.2061 L470.1408,174.2061 L470.1408,138.1441 L464.4738,138.1441 L464.4738,174.2061 Z M525.6068,160.2451 L532.2008,145.0991 L538.7958,160.2451 L525.6068,160.2451 Z M529.5228,137.9391 L513.7598,174.2061 L519.7858,174.2061 L523.6498,165.2421 L540.7528,165.2421 L544.6688,174.2061 L550.7478,174.2061 L534.9828,137.9391 L529.5228,137.9391 Z M503.7288,164.2631 L483.3798,138.1451 L478.4338,138.1451 L478.4338,174.2061 L483.9978,174.2061 L483.9978,147.9841 L504.5018,174.2061 L509.2928,174.2061 L509.2928,138.1451 L503.7288,138.1451 L503.7288,164.2631 Z M450.5138,152.3641 L431.7118,152.3641 L431.7118,138.1451 L426.0438,138.1451 L426.0438,174.2061 L431.7118,174.2061 L431.7118,157.5661 L450.5138,157.5661 L450.5138,174.2061 L456.1808,174.2061 L456.1808,138.1451 L450.5138,138.1451 L450.5138,152.3641 Z M1035.7158,174.2061 L1041.3818,174.2061 L1041.3818,138.1441 L1035.7158,138.1441 L1035.7158,174.2061 Z M1046.2348,143.3481 L1058.1348,143.3481 L1058.1348,174.2061 L1063.8018,174.2061 L1063.8018,143.3481 L1075.7538,143.3481 L1075.7538,138.1451 L1046.2348,138.1451 L1046.2348,143.3481 Z M1105.9148,138.1451 L1095.6118,152.7241 L1085.3088,138.1451 L1078.7148,138.1451 L1092.6758,157.8741 L1092.6758,174.2061 L1098.3418,174.2061 L1098.3418,157.7211 L1112.3028,138.1451 L1105.9148,138.1451 Z M1024.2848,155.7631 C1022.3958,154.7321 1020.1968,153.8401 1017.6908,153.0831 L1013.5698,151.8991 C1013.3638,151.8311 1013.0198,151.7111 1012.5388,151.5391 C1012.0568,151.3671 1011.6298,151.2041 1011.2508,151.0491 C1010.8728,150.8961 1010.5818,150.7501 1010.3758,150.6111 C1008.9678,149.6151 1008.2628,148.5341 1008.2628,147.3661 C1008.2628,145.9931 1008.8888,144.8861 1010.1438,144.0431 C1011.3968,143.2021 1013.2248,142.7811 1015.6298,142.7811 C1019.5788,142.7811 1023.3908,143.8981 1027.0668,146.1291 L1027.0668,140.4631 C1023.7348,138.4721 1019.8878,137.4761 1015.5268,137.4761 C1011.5078,137.4761 1008.3228,138.3681 1005.9708,140.1541 C1003.6178,141.9401 1002.4418,144.3271 1002.4418,147.3151 C1002.4418,150.6111 1003.6788,153.0331 1006.1518,154.5791 C1007.6278,155.4381 1008.8298,156.0391 1009.7578,156.3821 C1010.9248,156.8271 1012.4878,157.3261 1014.4458,157.8741 L1015.1668,158.0821 C1017.4678,158.7341 1019.1148,159.3021 1020.1118,159.7811 C1020.9358,160.1251 1021.5548,160.4851 1021.9668,160.8631 C1023.0298,161.7901 1023.5628,162.9061 1023.5628,164.2111 C1023.5628,165.8601 1022.7818,167.1661 1021.2188,168.1271 C1019.6558,169.0881 1017.6558,169.5691 1015.2178,169.5691 C1012.7458,169.5691 1010.2718,169.1061 1007.7998,168.1791 C1005.3268,167.2171 1003.3858,166.1181 1001.9778,164.8821 L1001.9778,171.0131 C1005.5148,173.5871 1010.0318,174.8751 1015.5268,174.8751 C1019.4758,174.8751 1022.7738,173.9141 1025.4178,171.9901 C1028.0618,170.0671 1029.3838,167.4401 1029.3838,164.1091 C1029.1778,160.2631 1027.4788,157.4811 1024.2848,155.7631 L1024.2848,155.7631 Z M831.7308,159.1631 C831.7308,162.4951 830.8808,165.0631 829.1808,166.8651 C827.4818,168.6681 825.1718,169.5691 822.2528,169.5691 C819.3328,169.5691 817.0318,168.6681 815.3498,166.8651 C813.6668,165.0631 812.8238,162.4951 812.8238,159.1631 L812.8238,138.1451 L807.1578,138.1451 L807.1578,158.9571 C807.1578,164.0411 808.5488,167.9721 811.3318,170.7551 C814.1808,173.5031 817.8218,174.8751 822.2528,174.8751 C826.6818,174.8751 830.3228,173.4851 833.1748,170.7031 C835.9888,167.9211 837.3978,164.0051 837.3978,158.9571 L837.3978,138.1451 L831.7308,138.1451 L831.7308,159.1631 Z M870.4658,164.2631 L850.1168,138.1451 L845.1718,138.1451 L845.1718,174.2061 L850.7358,174.2061 L850.7358,147.9841 L871.2388,174.2061 L876.0298,174.2061 L876.0298,138.1451 L870.4658,138.1451 L870.4658,164.2631 Z M973.0628,153.9601 L973.0628,143.3481 L983.4688,143.3481 C985.5308,143.3481 987.1348,143.8131 988.2858,144.7391 C989.4358,145.6661 990.0118,146.9541 990.0118,148.6041 C990.0118,150.3201 989.4358,151.6421 988.2858,152.5691 C987.1348,153.4961 985.5308,153.9601 983.4688,153.9601 L973.0628,153.9601 Z M993.6438,154.8101 C995.0338,153.0421 995.7298,150.9041 995.7298,148.3971 C995.7298,145.3741 994.6648,142.9011 992.5358,140.9791 C990.4408,139.0901 987.5388,138.1451 983.8308,138.1451 L967.3968,138.1451 L967.3968,174.2061 L973.0628,174.2061 L973.0628,158.9571 L981.5118,158.9571 L992.3828,174.2061 L999.2328,174.2061 L987.8988,158.3391 C990.3378,157.7561 992.2528,156.5791 993.6438,154.8101 L993.6438,154.8101 Z M884.3228,174.2061 L889.9898,174.2061 L889.9898,138.1441 L884.3228,138.1441 L884.3228,174.2061 Z M941.1968,157.5661 L957.4748,157.5661 L957.4748,152.3641 L941.1968,152.3641 L941.1968,143.3481 L961.1838,143.3481 L961.1838,138.1451 L935.5288,138.1451 L935.5288,174.2061 L961.8548,174.2061 L961.8548,169.0021 L941.1968,169.0021 L941.1968,157.5661 Z M912.9088,166.5811 L900.9578,138.1451 L894.6728,138.1451 L910.1788,174.4121 L915.5358,174.4121 L930.9898,138.1451 L924.8608,138.1451 L912.9088,166.5811 Z M592.9888,164.2631 L572.6398,138.1451 L567.6958,138.1451 L567.6958,174.2061 L573.2598,174.2061 L573.2598,147.9841 L593.7618,174.2061 L598.5528,174.2061 L598.5528,138.1451 L592.9888,138.1451 L592.9888,164.2631 Z M286.4838,160.2451 L293.0778,145.0991 L299.6728,160.2451 L286.4838,160.2451 Z M290.3998,137.9391 L274.6358,174.2061 L280.6618,174.2061 L284.5268,165.2421 L301.6298,165.2421 L305.5458,174.2061 L311.6248,174.2061 L295.8598,137.9391 L290.3998,137.9391 Z M336.8258,155.7631 C334.9368,154.7321 332.7368,153.8401 330.2318,153.0831 L326.1098,151.8991 C325.9038,151.8311 325.5608,151.7111 325.0798,151.5391 C324.5978,151.3671 324.1688,151.2041 323.7918,151.0491 C323.4138,150.8961 323.1218,150.7501 322.9168,150.6111 C321.5068,149.6151 320.8038,148.5341 320.8038,147.3661 C320.8038,145.9931 321.4298,144.8861 322.6838,144.0431 C323.9378,143.2021 325.7668,142.7811 328.1708,142.7811 C332.1198,142.7811 335.9318,143.8981 339.6068,146.1291 L339.6068,140.4631 C336.2758,138.4721 332.4288,137.4761 328.0678,137.4761 C324.0488,137.4761 320.8628,138.3681 318.5118,140.1541 C316.1588,141.9401 314.9828,144.3271 314.9828,147.3151 C314.9828,150.6111 316.2188,153.0331 318.6928,154.5791 C320.1678,155.4381 321.3708,156.0391 322.2978,156.3821 C323.4658,156.8271 325.0278,157.3261 326.9868,157.8741 L327.7078,158.0821 C330.0068,158.7341 331.6558,159.3021 332.6528,159.7811 C333.4768,160.1251 334.0948,160.4851 334.5078,160.8631 C335.5708,161.7901 336.1038,162.9061 336.1038,164.2111 C336.1038,165.8601 335.3228,167.1661 333.7598,168.1271 C332.1958,169.0881 330.1958,169.5691 327.7588,169.5691 C325.2848,169.5691 322.8128,169.1061 320.3408,168.1791 C317.8678,167.2171 315.9268,166.1181 314.5188,164.8821 L314.5188,171.0131 C318.0558,173.5871 322.5718,174.8751 328.0678,174.8751 C332.0168,174.8751 335.3128,173.9141 337.9588,171.9901 C340.6028,170.0671 341.9248,167.4401 341.9248,164.1091 C341.7188,160.2631 340.0198,157.4811 336.8258,155.7631 L336.8258,155.7631 Z M344.5888,143.3481 L356.4888,143.3481 L356.4888,174.2061 L362.1548,174.2061 L362.1548,143.3481 L374.1068,143.3481 L374.1068,138.1451 L344.5888,138.1451 L344.5888,143.3481 Z M250.5938,157.5661 L266.8728,157.5661 L266.8728,152.3641 L250.5938,152.3641 L250.5938,143.3481 L270.5818,143.3481 L270.5818,138.1451 L244.9268,138.1451 L244.9268,174.2061 L271.2518,174.2061 L271.2518,169.0021 L250.5938,169.0021 L250.5938,157.5661 Z M288.8418,27.4261389 C289.8628,27.4321 290.3608,26.7421 291.1858,26.6391 C294.4158,26.2381 297.8988,27.4721 299.3508,26.4531 C304.9348,22.5321 302.7538,17.7211 296.5828,17.5271 C292.8258,17.4011 287.9728,19.5271 285.0148,24.0561 C283.0918,26.9921 287.8178,27.4261389 288.8418,27.4261389 L288.8418,27.4261389 Z M839.5738,83.1471 C837.7528,82.6301 827.6938,85.8351 822.3658,86.1251 C820.3388,86.2441 819.7518,85.2111 819.7048,84.0621 C819.5618,80.1021 831.9078,80.5581 831.7448,76.3921 C831.5078,70.2331 827.1338,67.9931 820.8478,69.0121 C820.8478,69.0121 813.1018,70.6301 806.1378,71.3131 C800.2818,71.8801 792.7428,76.6451 794.4228,80.6691 C796.2258,84.9741 801.5248,84.6341 805.5188,81.9771 C806.8698,81.0781 806.6508,80.5801 807.4138,79.3981 C808.3638,77.9431 809.7868,78.4021 810.4568,77.7141 C812.4498,75.6681 813.4418,74.3331 814.8148,76.0561 C815.3268,76.6961 814.2368,80.3421 813.8628,81.3061 C813.1428,83.0941 811.4958,85.8141 809.3818,86.7191 C802.3258,89.7181 794.4388,91.7101 793.8008,96.4951 C793.6588,97.5871 796.3768,100.9321 798.0978,101.4851 C800.0448,102.1141 801.0218,100.6311 804.5458,98.8311 C805.9158,98.1311 809.2388,99.0391 810.4818,98.4951 C812.7118,97.5181 815.5738,94.7711 816.2218,95.8401 C817.5338,97.9941 816.4428,103.8231 813.0428,108.1331 C811.0098,110.7151 808.0538,112.9941 805.9928,112.6831 C805.2198,112.5641 800.4578,113.2311 800.1348,116.7141 C799.7708,120.7131 802.1538,122.5001 803.8388,123.0111 C811.1968,125.3071 815.3208,118.8581 820.5508,113.1051 C823.3068,110.0811 825.2568,106.0241 825.6368,103.9481 C826.2588,100.5411 827.1128,100.9551 827.0558,99.5121 C826.9458,96.6681 825.4678,95.4781 826.2258,94.8221 C828.6768,92.6971 833.2738,93.7451 834.3078,93.6271 C835.9768,93.4391 839.8948,93.7581 842.1418,92.3511 C846.4908,89.6131 841.6898,83.7561 839.5738,83.1471 L839.5738,83.1471 Z M662.2528,107.1081 C666.1398,106.6681 683.8998,96.9751 695.6988,82.0751 C697.8038,79.4211 701.6348,77.0761 703.7278,75.1331 C706.5818,72.4841 706.9698,69.9711 709.9528,68.7141 C718.9178,64.9311 727.9618,66.7321 733.2558,63.3711 C737.4238,60.7221 740.1178,56.5391 736.3278,53.6831 C734.9298,52.6321 734.4338,51.9891 731.0588,52.0981 C725.3218,52.2621 725.9968,55.2131 722.0928,55.4531 C720.4048,55.5561 722.1008,49.2351 725.3678,48.5051 C732.2098,46.9641 740.0318,43.3601 741.1708,37.2861 C742.1048,32.3051 741.6058,27.5221 733.2948,29.6311 C728.9528,30.7271 723.1478,32.6241 717.7218,37.7401 C710.7398,44.3121 704.4358,52.4011 697.7058,55.7401 C693.3598,57.9081 694.0698,55.6181 689.7508,56.6181 C677.7178,59.4321 669.7478,63.6621 671.5158,70.0251 C672.7468,74.4531 677.1168,75.6681 679.5728,76.1611 C682.5918,76.7511 685.2818,75.4191 684.9628,77.1071 C684.6438,78.7921 679.1568,83.8401 675.4598,88.2611 C673.9858,90.0301 669.5788,93.5481 664.9098,95.6311 C657.1008,99.0941 654.7008,100.3931 655.0978,102.9881 C655.5778,106.1581 658.7858,107.5131 662.2528,107.1081 L662.2528,107.1081 Z M565.7068,53.0291 C566.3188,52.8891 566.6978,52.2961 567.1348,51.6121 C567.8968,50.4321 568.8428,48.9541 571.4368,48.9591 C572.6588,48.9591 573.3808,49.9061 574.2148,50.9931 C575.2228,52.3151 576.3718,53.8141 578.6758,53.6141 C581.0018,53.4171 583.1188,50.7971 584.9818,48.4841 L586.3898,46.7921 C588.7978,44.0981 599.7058,34.8321 603.4058,34.1151 C605.1798,33.7721 606.2488,33.8091 606.7618,34.2431 C607.3388,34.7311 607.3138,35.7751 607.2728,37.2161 L607.2478,38.4501 C607.2458,39.7201 608.0578,40.4391 608.7738,41.0691 C609.4028,41.6291 609.9508,42.1161 609.8118,42.8561 C609.5098,44.5841 607.9718,45.3571 606.3448,46.1821 C604.7338,46.9881 603.0868,47.8321 602.6248,49.6561 C602.0688,51.8891 602.3708,53.9531 603.4428,55.1691 C604.2678,56.0971 605.5028,56.4941 607.0148,56.3191 C609.1438,56.0561 610.4208,54.0101 611.7868,51.8501 C612.6328,50.5011 613.5118,49.1031 614.6508,48.0031 C616.3218,46.3811 617.7918,46.2141 619.3498,46.0371 C620.6778,45.8891 622.0628,45.7331 623.5078,44.5641 C624.8278,43.4941 625.5188,42.1001 625.4658,40.6321 C625.3918,38.8591 624.2598,37.1181 622.2648,35.7431 C619.4808,33.8251 617.7348,35.4601 616.5838,36.5511 C616.1708,36.9421 615.7788,37.3131 615.5438,37.2841 L615.3108,37.1111 C613.8998,35.1041 615.1388,33.3051 616.4508,31.3841 C617.0848,30.4631 617.7368,29.5071 618.1028,28.5181 C618.5898,27.1581 618.4998,26.0481 617.8498,25.2951 C616.8928,24.1681 614.7828,23.9101 611.5958,24.5291 C610.2248,24.7871 609.0108,25.7681 607.7328,26.7971 C606.4878,27.8051 605.2038,28.8371 603.6708,29.3111 C599.5438,30.5811 596.6348,32.4081 594.2888,33.8791 C592.5878,34.9621 591.2388,35.8071 590.0318,36.0191 C589.1778,36.1721 587.6448,36.0521 586.0298,35.9211 C583.1778,35.7001 579.9468,35.4411 578.6078,36.4861 L576.3818,38.8491 C575.3878,40.0321 574.3578,41.2651 573.6358,41.2991 L573.1778,41.1011 C572.1668,40.0871 573.4428,38.2101 574.6848,36.3841 L575.1638,35.6741 C576.8558,33.1191 578.9488,31.7091 580.8008,30.4681 C581.9258,29.7031 582.9028,29.0531 583.5808,28.2581 C584.7828,26.8561 585.0178,25.1671 584.2108,23.6321 C583.3428,21.9581 581.4468,20.9121 579.6118,21.1111 C576.2138,21.4601 570.5478,26.5431 567.7718,29.6701 C566.0998,31.5551 564.8258,33.6321 563.6018,35.6401 C562.2528,37.8431 560.9878,39.9271 559.2558,41.7001 C557.4198,43.5841 557.9328,46.8071 559.2478,49.1761 C560.4458,51.3431 562.8618,53.6481 565.7068,53.0291 L565.7068,53.0291 Z M840.8458,48.7101 C840.8118,48.7491 840.7758,48.7921 840.7408,48.8301 C840.7978,48.7691 840.8308,48.7301 840.8458,48.7101 L840.8458,48.7101 Z M795.1178,54.0821 C795.0518,49.4581 794.9338,43.5501 795.6598,43.2941 C796.9128,42.8501 800.0528,38.9521 800.8128,40.0321 C802.0848,41.8761 799.4598,47.5151 799.1038,49.7531 C797.8568,54.0491 800.4248,53.1221 797.9428,57.0971 C796.5318,59.3661 797.1088,61.8681 795.3758,61.1711 C794.0468,60.6341 795.1628,57.2991 795.1178,54.0821 L795.1178,54.0821 Z M805.7598,49.4801 C806.4958,44.4771 809.9548,40.3961 812.3948,40.0441 C817.6078,39.2671 812.4088,44.1521 811.9498,44.9941 C810.9258,46.8051 809.0678,53.1131 807.7428,52.3421 C806.3888,51.5621 805.4208,51.7391 805.7598,49.4801 L805.7598,49.4801 Z M818.0658,47.1330524 C822.0948,47.5001 817.2028,58.8771 814.1108,54.5871 C814.1108,54.5871 814.1468,53.3111 814.1108,53.2261 C813.1388,51.1391 817.7428,47.1171 818.0658,47.1330524 L818.0658,47.1330524 Z M826.6388,47.8511 C826.7428,38.5831 830.5498,35.8761 832.0928,35.0641 C835.5148,33.2621 835.2738,31.7831 837.1618,31.3631 C839.5418,30.8251 841.2588,33.3361 841.4428,36.2551 C841.6178,38.9951 840.4138,42.2021 838.1438,42.4001 C835.5758,42.6411 835.5438,39.2151 834.0138,39.1681 C832.1778,39.1231 830.2058,41.7521 831.8638,43.1511 C833.2788,44.3361 832.6768,46.6451 831.4908,48.4911 C831.0028,49.2611 828.9938,50.0431 828.6548,50.8361 C828.1638,51.9891 829.5368,53.8141 829.1328,55.0011 C828.7388,56.1471 825.1668,57.1881 823.9448,55.6851 C822.0188,53.3581 826.6218,49.6171 826.6388,47.8511 L826.6388,47.8511 Z M782.1168,87.2721 C786.5188,85.9391 782.2928,78.1941 784.2878,73.9411 C785.6248,71.1011 796.0508,70.0881 802.7838,68.1241 C805.8678,67.2421 810.0628,65.4151 814.7378,65.0911 C822.4878,64.5401 829.5208,62.4361 834.2718,61.8951 C836.8558,61.6141 839.6388,62.2561 842.2748,61.7371 C845.2838,61.1401 844.2228,64.7931 845.5368,65.6981 C848.9668,68.0511 853.7978,68.4851 855.9418,66.1391 C857.4518,64.8011 858.6138,61.4991 857.2418,57.4621 C854.6888,49.8921 839.4028,57.3881 837.3868,53.4741 C836.9728,52.6571 841.0668,48.4221 840.8458,48.7101 C843.3948,45.8671 846.1548,41.8871 847.2148,37.3991 C848.0938,33.6691 846.6718,32.7281 846.1928,30.5221 C845.8088,28.7351 846.0948,26.8971 844.7418,25.1841 C841.3688,20.9471 836.6548,22.0991 834.1608,24.7381 C831.4908,27.5781 828.8748,34.5521 825.6308,34.7941 C822.0248,35.0531 820.4288,33.2321 821.0748,31.2551 C821.9988,28.4391 825.6978,24.4741 825.1748,22.5921 C824.8788,21.5351 822.3008,21.0261 819.7178,21.7991 C817.1338,22.5671 814.8888,28.4131 812.0558,27.1141 C810.7558,26.5211 811.5658,23.3831 810.5098,22.7261 C807.5788,20.8941 803.8798,29.9371 800.6948,30.2881 C795.0648,30.8831 793.3718,33.3051 791.8248,37.7531 C790.7028,41.0141 790.0898,46.6041 788.8838,50.4701 C787.4928,54.9251 788.5398,59.5411 786.8878,60.7101 C785.0768,61.9671 785.3348,60.3351 783.1908,60.6101 C780.1018,61.0271 774.4808,74.7071 776.6998,83.3101 C777.1258,84.9411 779.7138,88.0051 782.1168,87.2721 L782.1168,87.2721 Z M712.4928,75.6341 C710.0158,74.9881 708.0908,80.9801 708.3928,84.5251 C709.2428,94.6431 725.5128,100.1651 735.7638,102.2721 C739.7188,103.0801 745.1998,101.6681 749.1488,101.4051 C753.3198,101.1281 756.7608,102.2241 757.7238,99.9811 C758.6908,97.7341 759.9998,97.8261 759.6478,95.4901 C758.8508,90.0651 752.0518,88.1101 743.3228,88.4961 C738.2538,88.7241 733.2358,86.7371 730.0198,85.8351 C720.2568,83.1001 714.9818,76.2751 712.4928,75.6341 L712.4928,75.6341 Z M639.9838,84.1481 C636.4598,83.6581 635.3268,87.9271 634.4198,91.3621 L633.6508,93.9551 C631.7578,98.9761 621.8808,102.8391 613.5418,103.9291 L611.2818,104.2621 C607.2458,104.8961 604.0678,105.3921 600.0528,102.5401 C598.3068,101.2971 597.3998,97.1651 598.0378,93.3381 C598.5448,90.3071 599.9098,88.2521 601.7718,87.6991 C602.5798,87.4581 602.7268,87.7541 602.9758,88.2311 C603.5688,89.3711 604.4148,90.1621 608.8638,88.3111 C609.2478,88.1491 609.5788,87.2691 610.1658,85.5861 C610.6518,84.1901 611.2058,82.6161 611.8338,81.7021 L613.8838,79.0671 L615.2628,77.2251 C616.5738,74.0571 616.1848,70.7311 614.2108,68.0901 C612.0048,65.1541 608.2298,63.6591 604.0928,64.1001 C597.9778,64.7481 591.7558,67.9761 586.2548,70.8231 C580.6578,73.7181 575.8178,76.2341 572.1688,75.6681 C570.8708,75.4641 570.0308,74.6441 569.2928,73.9201 C568.6038,73.2481 567.9478,72.5921 567.0688,72.7031 C565.8218,72.8521 564.2838,74.5181 561.9298,78.2711 C561.4618,79.0301 561.0858,80.5301 560.6458,82.2671 C559.9328,85.0721 559.0508,88.5581 557.5058,89.3071 C557.0828,89.5051 556.6388,89.4981 556.1328,89.2791 C555.6168,89.0431 555.2898,88.6701 555.1608,88.1331 C554.5628,85.7971 557.6738,81.4951 557.7058,81.4571 C557.7308,81.4191 559.0508,77.4891 559.0508,77.4891 C559.3748,76.2591 559.6808,75.1021 560.2208,74.1961 C563.3068,68.9431 568.5808,68.6241 574.1578,68.2851 C577.0488,68.1101 581.7108,65.3571 582.5348,64.5211 C584.1738,62.8741 582.5548,60.5171 581.2598,58.6381 L581.0178,58.2871 C578.8638,55.1311 576.4058,54.0471 573.4928,54.9601 C571.0668,55.7331 567.8288,58.1651 564.0858,60.9841 C561.2428,63.1321 558.3068,65.3411 555.3518,67.1041 L554.3138,67.7041 C548.2378,71.1841 541.2448,75.5371 541.0828,78.2931 C541.0528,78.8281 541.2818,79.2821 541.7578,79.6381 C543.7448,81.1031 546.2758,79.1171 548.5098,77.3531 C550.2208,76.0051 551.8358,74.7381 552.6408,75.5521 C552.9238,75.8321 553.0498,76.1041 553.0498,76.4221 C553.0458,77.0401 552.5348,77.8261 551.4798,78.8141 L551.0098,79.2681 C549.7388,80.4291 548.5568,81.5191 547.4408,85.1891 C545.8748,90.3361 546.7458,91.6911 548.1908,93.9411 L549.6438,96.4121 C550.2608,97.6521 550.0208,99.4201 549.8568,100.5881 L549.8328,101.9211 C550.8048,103.5341 551.7698,103.5771 552.4778,103.6111 C553.0478,103.6411 553.3888,103.6551 553.6628,104.3441 C554.2948,105.9391 553.2208,109.3971 552.4408,109.7121 C552.3868,109.7251 552.2318,109.7881 552.0438,109.3521 C551.5818,108.2341 549.6238,108.2161 548.8878,108.2131 C546.8968,108.1811 546.0138,109.6731 545.2378,110.9961 L544.6548,111.9451 C541.3858,116.6051 543.5938,119.6251 546.1818,121.9661 C547.7268,123.3591 549.0598,124.5621 552.4818,123.5031 C555.4168,122.5981 556.6228,118.1611 557.8848,113.4631 L558.3068,111.9491 C559.5128,107.5601 560.9158,103.8941 562.1378,101.8751 C563.6308,99.4061 563.7508,97.3321 563.8348,95.6681 L564.1758,93.3171 C565.2408,90.4731 567.0808,89.6251 569.4008,88.5481 C570.6168,87.9811 571.9908,87.3491 573.4178,86.3281 L576.7008,83.9111 C580.6988,80.9141 583.8648,78.5511 589.0478,76.7681 C590.7598,76.1711 592.5918,75.1061 594.3538,74.0821 C596.7698,72.6731 599.2658,71.2161 601.6028,70.8561 L602.0728,70.7821 C604.1388,70.4521 607.9718,69.8351 609.0068,71.3131 C609.3328,71.7601 609.9658,75.1471 609.0638,76.5581 C608.7408,77.0561 608.2688,77.2411 607.6188,77.1171 C606.5208,76.9051 606.4878,76.2551 606.5328,75.2051 C606.5658,74.5031 606.5988,73.7761 606.0508,73.3151 C605.0818,72.4911 601.5128,72.4801 601.4758,72.4801 C600.1198,72.4841 598.8638,73.8311 597.3998,75.3971 C596.3448,76.5121 595.1428,77.7961 593.7628,78.6951 C588.6548,82.0391 586.4508,89.2981 586.9338,94.7561 C587.4858,101.0301 590.2988,103.8011 591.9748,105.4651 L592.9718,106.5471 C596.6818,112.0591 602.3058,116.7891 618.2048,114.1821 C628.6568,112.4611 637.2668,108.0221 641.8358,102.0071 C643.9248,99.2551 644.9998,91.3621 643.2358,87.0721 C642.5138,85.3351 641.4258,84.3561 639.9838,84.1481 L639.9838,84.1481 Z M273.1038,26.8381 C280.4048,24.5061 274.8288,15.9461 268.2308,16.9111 C268.2308,16.9111 264.5388,17.2201 263.3368,18.0371 C261.8008,18.8691 262.3718,19.7721 261.3538,20.9181 C260.0618,21.8771 260.1148,23.4871 260.5878,24.7821 C261.8078,28.1561 267.0818,28.7391 273.1038,26.8381 L273.1038,26.8381 Z M491.6438,49.4981 C493.7348,45.3431 494.4358,45.8451 495.5638,46.4581 C496.8198,47.1581 494.1168,50.5911 492.2688,55.2471 C490.9158,58.6631 488.6468,60.4191 487.0358,59.2181 C485.8418,58.3401 489.9758,52.8311 491.6438,49.4981 L491.6438,49.4981 Z M460.6828,46.1851 C461.1978,50.8921 460.3888,51.0571 459.5278,53.4741 C458.9128,55.1891 462.2178,56.1571 459.8038,57.3751 C455.1188,59.7501 454.5688,63.7511 454.1948,65.9771 C454.0188,67.0291 452.7208,66.9351 452.3588,65.9771 C451.5208,63.7871 450.8388,59.7791 452.1668,56.4461 C453.9558,51.9731 454.3378,48.5451 455.8748,45.5871 C457.7998,41.8511 460.9118,39.8681 461.8158,40.5981 C463.5648,41.9811 460.5108,44.5451 460.6828,46.1851 L460.6828,46.1851 Z M504.1478,71.2461 C504.9668,68.3001 503.8718,67.3921 504.2458,65.7631 C504.8488,63.1021 508.6058,63.3061 510.8548,62.8781 C513.8778,62.3081 515.5438,60.8061 516.1938,62.9411 C516.1938,62.9411 516.1648,67.6631 512.9228,70.7521 C510.4718,73.0921 509.0208,74.2001 507.1568,74.2721 C506.1778,74.3151 503.8228,72.4151 504.1478,71.2461 L504.1478,71.2461 Z M480.6538,84.7481 C482.3598,85.7951 483.7178,86.0511 485.5828,85.4941 C490.1588,84.1231 486.7948,75.6601 488.7978,71.4411 C489.2278,70.5261 489.4868,68.9261 490.9888,69.4091 C492.4898,69.9001 492.1338,88.1491 491.7598,98.8991 C491.5008,106.2571 492.3468,112.1811 492.9398,117.8501 C493.1928,120.2271 493.5268,122.4671 497.0648,122.473106 C502.0768,122.4821 501.9458,111.7721 501.8478,105.1391 C501.7698,99.6361 502.0358,91.3731 503.8148,88.2231 C505.7728,84.7341 511.4308,81.6441 514.9588,80.1101 C518.5898,78.5501 520.8828,73.4791 522.6978,71.3091 C525.1588,68.3811 526.2058,59.8341 526.2568,56.8271 C526.3328,52.6921 524.6968,50.9381 521.2798,50.1261 C516.0248,48.8661 508.9068,55.0591 506.2858,52.6471 C505.2008,51.6441 506.7988,48.9491 506.8048,47.2381 C506.8108,44.4771 504.8078,42.4061 502.5798,42.2631 C501.1408,42.1611 500.8388,40.3801 502.4408,39.9371 C504.7308,39.2941 505.9138,39.3411 508.3238,39.1261 C512.8718,38.7041 515.4088,37.9531 517.4118,33.4651 C518.0298,32.0961 517.1178,29.4901 515.0488,28.4911 C512.3958,27.2131 504.9758,28.3771 497.2528,29.9971 C488.9208,31.7491 480.0898,33.1831 478.9038,36.5411 C478.3198,38.1791 476.8848,40.2051 476.3038,42.2721 C475.4478,45.2641 475.1308,47.9071 473.7658,49.2891 C469.4808,53.6391 469.3948,60.9731 467.9888,58.7591 C467.0278,57.2421 464.6238,57.8251 463.1028,57.7691 C462.3878,57.7351 462.1258,55.8421 462.7678,55.0011 C463.4018,54.1561 463.6338,54.7871 464.6648,54.1231 C467.4688,52.3241 470.5478,48.3821 470.7258,45.9811 C471.1608,39.9371 472.6538,35.1331 469.4518,32.2911 C466.7048,29.8451 462.6538,29.3261 458.6748,29.8221 C456.5948,30.0791 453.2888,31.0161 451.3128,32.3471 C447.9088,34.6121 447.5018,39.4681 446.3208,45.4421 C445.8388,47.8871 444.2638,51.1301 443.9658,54.8621 C443.5898,59.6121 443.2418,66.2061 443.1478,69.5881 C442.9278,77.2061 443.5818,82.3791 446.2608,87.2231 C447.6598,89.7541 447.4898,93.7281 451.3658,93.2101 C454.5708,92.7791 450.8138,81.3301 450.7768,75.7671 C450.7648,73.4971 450.8868,71.3041 452.4468,70.0381 C452.9438,69.6451 453.2338,68.5041 454.2968,68.8101 C455.3698,69.1061 454.3258,72.6081 455.8958,72.3221 C458.6838,71.8331 459.5058,68.1361 461.9398,69.0051 C463.8558,69.6931 461.8728,73.1081 460.0248,75.4191 C456.3948,79.9281 455.6908,87.1841 461.9708,87.6791 C464.6398,87.8941 466.9908,83.8491 467.5938,80.1101 C468.0598,77.1861 467.4448,75.4811 468.0288,73.1461 C468.5118,71.3041 469.9308,70.6681 470.6908,68.4031 C471.4188,66.2471 471.8398,63.8181 473.0498,61.2011 C474.4398,58.1651 476.6598,54.9411 478.0498,52.4491 C479.6158,49.6581 480.8998,46.9861 482.8738,45.1861 C484.8368,43.3851 487.9238,41.8751 490.1518,42.8451 C491.7458,43.5401 486.5578,48.0281 483.6608,51.9671 C479.6078,57.4781 477.8838,63.8441 478.2138,71.5561 C478.3388,74.6761 478.3078,83.3341 480.6538,84.7481 L480.6538,84.7481 Z M269.2488,79.0171 C265.4998,80.3781 262.4378,82.0421 261.5628,81.6491 C259.6918,80.8071 262.5888,80.1801 262.9888,77.9711 C264.4208,70.0921 264.4278,66.0221 266.8238,64.5441 C269.3008,63.0091 271.0368,63.0481 272.4458,62.0931 C275.2658,60.1901 276.3738,58.2021 276.7048,58.7991 C276.9888,59.3141 277.0938,63.1321 276.3788,67.0781 C275.4588,72.1161 277.0708,76.0971 275.8428,77.0221 C274.0008,78.4021 271.3598,78.2431 269.2488,79.0171 L269.2488,79.0171 Z M276.6648,46.6041 C278.5458,47.1471 278.0748,49.2331 275.0458,51.5131 C270.5808,54.8561 264.1528,59.7201 262.5048,56.7781 C260.8098,53.7711 273.8718,45.7841 276.6648,46.6041 L276.6648,46.6041 Z M253.3408,77.6841 C250.0498,75.0061 256.8118,69.9511 258.6428,69.9861 C262.0158,70.0551 256.8978,80.5351 253.3408,77.6841 L253.3408,77.6841 Z M287.4418,51.2031 C288.4158,48.8191 293.5578,48.6941 293.7168,49.5381 C293.8598,50.3751 291.9348,53.4901 292.9278,55.5991 C293.9538,57.8011 294.9848,59.6771 297.3778,59.3561 C298.7698,59.1701 298.3388,60.9731 297.1758,62.9031 C296.3048,64.3641 289.4198,72.0881 287.2538,70.2401 C285.7198,68.9591 285.2948,61.9241 287.6908,57.2091 C288.0668,55.3811 286.7958,52.6291 287.4418,51.2031 L287.4418,51.2031 Z M275.5848,121.6461 C278.4918,123.3331 281.4888,123.8651 282.3018,121.6581 C283.5938,118.1081 282.9728,108.5311 284.3908,107.3871 C288.5858,104.0351 302.9728,107.8271 304.8698,101.8011 C307.1018,94.7901 303.2058,91.7871 300.8138,92.1721 C296.5418,92.8601 289.9598,94.8661 286.0188,94.6661 C284.4648,94.5881 284.9268,91.9951 285.5118,90.0811 C286.9158,85.4171 298.1958,88.3391 306.3128,87.9261 C312.3878,87.6021 311.9298,88.6311 315.8668,88.7711 C321.4318,88.9591 325.2378,83.7831 322.0198,77.4791 C320.7978,75.0831 305.3608,76.6741 299.7388,77.5711 C292.6418,78.6951 289.4198,80.3471 287.2408,78.1751 C284.8328,75.7361 289.5348,74.6611 289.6608,74.6611 C296.8198,74.5861 316.4848,59.6401 304.9468,49.0351 C301.0168,45.4161 303.9248,41.9931 297.5968,42.6231 C297.0408,42.6861 290.8388,44.3141 289.5058,43.4081 C288.2348,42.5561 288.2158,39.0211 291.3358,38.5511 C295.5968,37.9161 302.7888,37.9551 303.5858,37.7001 C311.4438,35.3891 310.3438,26.3281 300.8468,28.9451 C295.4788,30.4161 291.4808,31.4411 288.7048,29.9551 C288.4758,29.8361 285.6708,28.2121 284.5708,28.5931 C283.4708,28.9801 284.4408,30.5291 282.1178,30.7241 C279.7918,30.9161 270.7738,30.3811 265.4478,32.5741 C263.2098,33.4911 258.0688,31.9361 255.8218,33.5861 C253.6308,35.2021 250.0658,41.5841 256.0018,44.0491 C258.5958,45.1311 263.5168,39.6181 270.5398,39.0991 C273.9668,38.8491 275.1968,35.8761 278.4228,38.0141 C279.7108,38.8671 279.0318,39.2671 278.4998,39.8681 C278.1898,40.2211 267.8178,43.5501 260.0008,48.3211 C254.5468,51.6471 249.7878,54.6981 252.1678,60.3191 C252.6748,61.5221 256.7908,64.1241 253.3208,65.7451 C250.0258,67.2861 245.4218,70.6301 245.0378,73.3561 C244.9028,74.3641 244.8578,78.1101 244.9718,79.1011 C245.4788,83.6271 251.2268,82.6681 251.0348,84.4721 C250.9458,85.2771 246.7038,85.8911 243.9238,87.6271 C242.0608,88.8001 241.8728,92.0961 242.0428,93.5661 C242.2948,95.8281 243.6188,95.1861 248.1728,95.1891 C255.4748,95.2021 257.7598,94.2441 266.3948,91.4701 C268.1528,90.9131 271.8528,90.2241 273.8838,90.7701 C276.1338,91.3841 275.3648,94.3971 272.7158,95.1661 C267.3288,96.7351 244.6078,103.7131 254.8698,110.5681 C257.3448,112.2301 263.0978,112.0941 264.7368,111.5911 C266.5708,111.0201 270.8838,107.9011 272.9568,109.6331 C275.2728,111.5721 271.1008,119.0381 275.5848,121.6461 L275.5848,121.6461 Z M385.2658,67.5201 C385.7938,65.6641 386.9508,61.5301 384.2278,60.5171 C381.5658,59.5381 381.7748,53.2771 384.0758,53.8421 C388.3218,54.8801 394.7218,53.4011 395.0958,54.3481 C396.6238,58.2051 392.7498,63.5911 389.5338,66.4921 C388.3278,67.5691 387.3628,69.6891 386.6278,70.3371 C384.6808,72.0881 384.3238,70.8551 385.2658,67.5201 L385.2658,67.5201 Z M420.2168,95.4121 C417.9438,93.5851 419.3378,96.1381 412.8988,95.2441 C411.0678,94.9871 402.7228,92.3211 398.5038,91.4421 C396.4868,91.0051 392.6578,89.0661 389.6998,86.7871 C387.8168,85.3161 384.9148,85.6241 387.8988,81.4451 C389.6998,78.9291 386.4358,77.0051 388.3158,75.4941 C389.9058,74.2061 393.3238,72.5041 395.3198,70.7621 C397.7108,68.6581 400.0908,64.7431 403.5408,60.8751 C406.7618,57.2571 408.1488,46.3961 404.2068,44.4601 C401.5048,43.1381 397.8498,43.8141 392.7068,43.5571 C390.0988,43.4321 387.1588,48.1611 387.6368,44.0011 C387.9608,41.1391 387.6408,40.0271 389.8408,38.7131 C393.3078,36.6651 406.7168,36.6441 404.8228,29.9371 C403.2998,24.5361 395.6438,30.7091 391.6278,28.1601 C389.7468,26.9841 390.7608,21.1281 385.9488,23.7171 C385.2868,24.0711 382.3228,25.2161 381.7518,26.1431 C381.1818,27.0741 381.5088,31.0411 381.0798,31.1001 C378.2768,31.4621 373.5978,31.7491 367.5148,33.3161 C361.7558,34.8151 356.9458,32.7431 353.5778,36.2021 C352.1628,37.6431 350.8568,38.5341 349.9228,40.4051 C348.3118,43.6081 351.0758,47.2221 355.0528,47.4231 C356.7708,47.5091 364.7918,41.3611 368.6308,40.2451 C373.0748,38.9551 377.7388,37.8381 379.0128,39.3251 C379.6348,40.0531 379.4218,41.9791 378.4448,44.0011 C374.8818,51.3521 370.7448,51.0081 367.5958,52.7701 C366.9018,53.1591 366.3898,51.6881 367.1878,50.4321 C368.2528,48.7771 370.9938,46.9251 370.7848,46.3021 C370.5178,45.5101 365.0438,46.4351 360.5928,48.4981 C358.8838,49.2891 357.7298,50.3341 356.4878,51.3881 C352.7928,54.5151 350.4008,64.6281 351.9878,73.2291 C353.3058,80.3471 353.0788,86.4191 357.6378,87.3571 C363.0708,88.4771 362.9568,83.2621 361.8848,75.0571 C361.2718,70.3711 363.6998,66.3291 365.0368,64.1941 C365.5668,63.3361 366.2388,57.9471 373.0948,58.5011 C373.3858,58.5281 373.7368,60.0481 372.2158,60.8211 C370.2378,61.8331 368.2708,64.3451 368.4138,65.7451 C368.5898,67.4571 370.2858,68.8791 371.1088,70.9251 C371.9318,72.9771 367.9518,74.5601 372.6288,76.9851 C372.9888,77.1721 371.0568,79.4061 369.8448,79.3271 C369.2768,79.2901 369.0638,78.3361 368.5158,78.3931 C366.8158,78.5981 366.3088,83.0901 366.1248,83.6081 C365.1028,86.5881 362.3958,88.9511 359.6238,91.5651 C354.9148,96.0111 348.8878,102.6761 345.6938,106.8091 C341.9018,111.7331 344.7328,114.9581 351.4578,114.5311 C354.4688,114.3381 359.6018,107.7611 362.2528,104.7011 C364.1168,102.5381 368.1448,98.1001 370.6058,97.5031 C373.2458,96.8691 369.7148,113.6131 370.8628,115.2731 C372.8658,118.1291 379.1418,119.1431 379.1458,114.2811 C379.1498,112.0831 378.7368,109.3201 378.5858,106.0091 C378.4798,103.4361 379.1048,100.3531 379.1728,98.0151 C379.2648,94.6621 379.3028,91.3951 380.1598,91.2541 C382.0878,90.9341 383.2608,93.7961 386.7538,96.7271 C394.9468,103.6281 409.6328,108.0451 419.7998,107.5631 C425.8868,107.2751 428.4998,103.0721 423.0338,97.9141 C421.7868,96.7391 420.8898,95.9501 420.2168,95.4121 L420.2168,95.4121 Z" id="Fill-3"/>
    </g>
</svg>
